<svg version="1.1" xmlns="http://www.w3.org/2000/svg" xmlns:xlink="http://www.w3.org/1999/xlink" width="1204" height="452"><defs/><g><g transform="translate(-126,-86) scale(1,1)"><rect fill="#C0C0C0" stroke="none" x="175" y="343" width="603.978515625" height="190" opacity="0.2"/></g><g transform="translate(-126,-86) scale(1,1)"><rect fill="#ffffff" stroke="none" x="168" y="336" width="603.978515625" height="190"/></g><g transform="translate(-126,-86) scale(1,1)"><path fill="none" stroke="#000000" d="M 168 336 L 771.978515625 336 L 771.978515625 526 L 168 526 L 168 336 Z Z" stroke-miterlimit="10"/></g><g transform="translate(-126,-86) scale(1,1)"><path fill="none" stroke="#000000" d="M 168 361 L 771.978515625 361" stroke-miterlimit="10"/></g><g transform="translate(-126,-86) scale(1,1)"><path fill="none" stroke="#000000" d="M 168 384 L 771.978515625 384" stroke-miterlimit="10"/></g><g transform="translate(-126,-86) scale(1,1)"><g><path fill="none" stroke="none"/><text fill="#000000" stroke="none" font-family="Arial" font-size="13px" font-style="normal" font-weight="bold" text-decoration="none" x="428.81201171875" y="355.5">formController</text></g></g><g transform="translate(-126,-86) scale(1,1)"><g><path fill="none" stroke="none"/><text fill="#000000" stroke="none" font-family="Arial" font-size="13px" font-style="normal" font-weight="normal" text-decoration="none" x="173" y="378.5">-forms: ConfigFormulario[0..*]</text></g></g><g transform="translate(-126,-86) scale(1,1)"><g><path fill="none" stroke="none"/><text fill="#000000" stroke="none" font-family="Arial" font-size="13px" font-style="normal" font-weight="normal" text-decoration="none" x="173" y="401.5">+get_Home(req: Request, res: Response)</text></g></g><g transform="translate(-126,-86) scale(1,1)"><g><path fill="none" stroke="none"/><text fill="#000000" stroke="none" font-family="Arial" font-size="13px" font-style="normal" font-weight="normal" text-decoration="none" x="173" y="416.5">+get_Form_Results (req: Request, res: Response)</text></g></g><g transform="translate(-126,-86) scale(1,1)"><g><path fill="none" stroke="none"/><text fill="#000000" stroke="none" font-family="Arial" font-size="13px" font-style="normal" font-weight="normal" text-decoration="none" x="173" y="431.5">+get_Forms(req: Request, res: Response)</text></g></g><g transform="translate(-126,-86) scale(1,1)"><g><path fill="none" stroke="none"/><text fill="#000000" stroke="none" font-family="Arial" font-size="13px" font-style="normal" font-weight="normal" text-decoration="none" x="173" y="446.5">+get_Fill_Form (req: Request, res: Response)</text></g></g><g transform="translate(-126,-86) scale(1,1)"><g><path fill="none" stroke="none"/><text fill="#000000" stroke="none" font-family="Arial" font-size="13px" font-style="normal" font-weight="normal" text-decoration="none" x="173" y="461.5">+post_Fill_Form (req: Request, res: Response)</text></g></g><g transform="translate(-126,-86) scale(1,1)"><g><path fill="none" stroke="none"/><text fill="#000000" stroke="none" font-family="Arial" font-size="13px" font-style="normal" font-weight="normal" text-decoration="none" x="173" y="476.5">+valid_Form_Request(request: Request, formulario: String)</text></g></g><g transform="translate(-126,-86) scale(1,1)"><g><path fill="none" stroke="none"/><text fill="#000000" stroke="none" font-family="Arial" font-size="13px" font-style="normal" font-weight="normal" text-decoration="none" x="173" y="491.5">+redirect_Message(req: Request, res: Response, message: String, type: String, url: String)</text></g></g><g transform="translate(-126,-86) scale(1,1)"><g><path fill="none" stroke="none"/><text fill="#000000" stroke="none" font-family="Arial" font-size="13px" font-style="normal" font-weight="normal" text-decoration="none" x="173" y="506.5">+get_Form_Data(formType: String, res: Response)</text></g></g><g transform="translate(-126,-86) scale(1,1)"><g><path fill="none" stroke="none"/><text fill="#000000" stroke="none" font-family="Arial" font-size="13px" font-style="normal" font-weight="normal" text-decoration="none" x="173" y="521.5">+extract_Form_Data(estudioId: String, formName: String, res: Response)</text></g></g><g transform="translate(-126,-86) scale(1,1)"><rect fill="#C0C0C0" stroke="none" x="575" y="167" width="166.1806640625" height="87" opacity="0.2"/></g><g transform="translate(-126,-86) scale(1,1)"><rect fill="#ffffff" stroke="none" x="568" y="160" width="166.1806640625" height="87"/></g><g transform="translate(-126,-86) scale(1,1)"><path fill="none" stroke="#000000" d="M 568 160 L 734.1806640625 160 L 734.1806640625 247 L 568 247 L 568 160 Z Z" stroke-miterlimit="10"/></g><g transform="translate(-126,-86) scale(1,1)"><path fill="none" stroke="#000000" d="M 568 185 L 734.1806640625 185" stroke-miterlimit="10"/></g><g transform="translate(-126,-86) scale(1,1)"><path fill="none" stroke="#000000" d="M 568 238 L 734.1806640625 238" stroke-miterlimit="10"/></g><g transform="translate(-126,-86) scale(1,1)"><g><path fill="none" stroke="none"/><text fill="#000000" stroke="none" font-family="Arial" font-size="13px" font-style="normal" font-weight="bold" text-decoration="none" x="601.239013671875" y="179.5">ConfigFormulario</text></g></g><g transform="translate(-126,-86) scale(1,1)"><g><path fill="none" stroke="none"/><text fill="#000000" stroke="none" font-family="Arial" font-size="13px" font-style="normal" font-weight="normal" text-decoration="none" x="573" y="202.5">+modelo: mongoose.model</text></g></g><g transform="translate(-126,-86) scale(1,1)"><g><path fill="none" stroke="none"/><text fill="#000000" stroke="none" font-family="Arial" font-size="13px" font-style="normal" font-weight="normal" text-decoration="none" x="573" y="217.5">+header: String[0..*]</text></g></g><g transform="translate(-126,-86) scale(1,1)"><g><path fill="none" stroke="none"/><text fill="#000000" stroke="none" font-family="Arial" font-size="13px" font-style="normal" font-weight="normal" text-decoration="none" x="573" y="232.5">+render: String</text></g></g><g transform="translate(-126,-86) scale(1,1)"><path fill="#ffffff" stroke="none" d="M 136 120 L 469 120 L 479 130 L 479 281 L 136 281 L 136 120"/></g><g transform="translate(-126,-86) scale(1,1)"><path fill="none" stroke="#000000" d="M 136 120 L 469 120 L 479 130 L 479 281 L 136 281 L 136 120 L 136 120" stroke-miterlimit="10"/></g><g transform="translate(-126,-86) scale(1,1)"><path fill="none" stroke="#000000" d="M 469 120 L 469 130 L 479 130 L 469 120" stroke-miterlimit="10"/></g><g transform="translate(-126,-86) scale(1,1)"><g><path fill="none" stroke="none"/><text fill="#000000" stroke="none" font-family="Arial" font-size="13px" font-style="normal" font-weight="normal" text-decoration="none" x="141" y="138">Esta clase representa el objeto javascript que permite la</text><text fill="#000000" stroke="none" font-family="Arial" font-size="13px" font-style="normal" font-weight="normal" text-decoration="none" x="141" y="151">configuraci칩n de los formularios. Por cada formulario que</text><text fill="#000000" stroke="none" font-family="Arial" font-size="13px" font-style="normal" font-weight="normal" text-decoration="none" x="141" y="164">queramos a침adir tendremos que especificar lo siguiente:</text></g></g><g transform="translate(-126,-86) scale(1,1)"><g><path fill="none" stroke="none"/></g></g><g transform="translate(-126,-86) scale(1,1)"><g><path fill="none" stroke="none"/><text fill="#000000" stroke="none" font-family="Arial" font-size="13px" font-style="normal" font-weight="normal" text-decoration="none" x="141" y="181">1.- modelo: Modelo de mongoose para la gesti칩n de los</text><text fill="#000000" stroke="none" font-family="Arial" font-size="13px" font-style="normal" font-weight="normal" text-decoration="none" x="141" y="194">campos a guardar.</text></g></g><g transform="translate(-126,-86) scale(1,1)"><g><path fill="none" stroke="none"/><text fill="#000000" stroke="none" font-family="Arial" font-size="13px" font-style="normal" font-weight="normal" text-decoration="none" x="141" y="209">2.- header: Array de strings con los campos a utilizar en</text><text fill="#000000" stroke="none" font-family="Arial" font-size="13px" font-style="normal" font-weight="normal" text-decoration="none" x="141" y="222">la exportaci칩n a csv.(Por lo general los mismos que tenga</text><text fill="#000000" stroke="none" font-family="Arial" font-size="13px" font-style="normal" font-weight="normal" text-decoration="none" x="141" y="235">el modelo)</text></g></g><g transform="translate(-126,-86) scale(1,1)"><g><path fill="none" stroke="none"/><text fill="#000000" stroke="none" font-family="Arial" font-size="13px" font-style="normal" font-weight="normal" text-decoration="none" x="141" y="250">3.- render: String que referencia a la vista creada en jade</text><text fill="#000000" stroke="none" font-family="Arial" font-size="13px" font-style="normal" font-weight="normal" text-decoration="none" x="141" y="263">para ese formulario</text></g></g><g transform="translate(-126,-86) scale(1,1)"><rect fill="#ffffff" stroke="none" x="864" y="112" width="456" height="416"/></g><g transform="translate(-126,-86) scale(1,1)"><path fill="none" stroke="#000000" d="M 864 112 L 1320 112 L 1320 528 L 864 528 L 864 112 Z Z" stroke-miterlimit="10"/></g><g transform="translate(-126,-86) scale(1,1)"><g><path fill="none" stroke="none"/><text fill="#000000" stroke="none" font-family="Arial" font-size="15px" font-style="normal" font-weight="normal" text-decoration="none" x="885" y="140">Controladores de la API</text></g></g><g transform="translate(-126,-86) scale(1,1)"><rect fill="#C0C0C0" stroke="none" x="903" y="199" width="295.53955078125" height="72" opacity="0.2"/></g><g transform="translate(-126,-86) scale(1,1)"><rect fill="#ffffff" stroke="none" x="896" y="192" width="295.53955078125" height="72"/></g><g transform="translate(-126,-86) scale(1,1)"><path fill="none" stroke="#000000" d="M 896 192 L 1191.53955078125 192 L 1191.53955078125 264 L 896 264 L 896 192 Z Z" stroke-miterlimit="10"/></g><g transform="translate(-126,-86) scale(1,1)"><path fill="none" stroke="#000000" d="M 896 217 L 1191.53955078125 217" stroke-miterlimit="10"/></g><g transform="translate(-126,-86) scale(1,1)"><path fill="none" stroke="#000000" d="M 896 227 L 1191.53955078125 227" stroke-miterlimit="10"/></g><g transform="translate(-126,-86) scale(1,1)"><g><path fill="none" stroke="none"/><text fill="#000000" stroke="none" font-family="Arial" font-size="13px" font-style="normal" font-weight="bold" text-decoration="none" x="994.632568359375" y="211.5">estudioController</text></g></g><g transform="translate(-126,-86) scale(1,1)"><g><path fill="none" stroke="none"/><text fill="#000000" stroke="none" font-family="Arial" font-size="13px" font-style="normal" font-weight="normal" text-decoration="none" x="901" y="244.5">+create_a_Estudio(req: Request, res: Response)</text></g></g><g transform="translate(-126,-86) scale(1,1)"><g><path fill="none" stroke="none"/><text fill="#000000" stroke="none" font-family="Arial" font-size="13px" font-style="normal" font-weight="normal" text-decoration="none" x="901" y="259.5">+update_a_Estudio(req: Request, res: Response)</text></g></g><g transform="translate(-126,-86) scale(1,1)"><rect fill="#C0C0C0" stroke="none" x="903" y="343" width="350.43408203125" height="102" opacity="0.2"/></g><g transform="translate(-126,-86) scale(1,1)"><rect fill="#ffffff" stroke="none" x="896" y="336" width="350.43408203125" height="102"/></g><g transform="translate(-126,-86) scale(1,1)"><path fill="none" stroke="#000000" d="M 896 336 L 1246.43408203125 336 L 1246.43408203125 438 L 896 438 L 896 336 Z Z" stroke-miterlimit="10"/></g><g transform="translate(-126,-86) scale(1,1)"><path fill="none" stroke="#000000" d="M 896 361 L 1246.43408203125 361" stroke-miterlimit="10"/></g><g transform="translate(-126,-86) scale(1,1)"><path fill="none" stroke="#000000" d="M 896 371 L 1246.43408203125 371" stroke-miterlimit="10"/></g><g transform="translate(-126,-86) scale(1,1)"><g><path fill="none" stroke="none"/><text fill="#000000" stroke="none" font-family="Arial" font-size="13px" font-style="normal" font-weight="bold" text-decoration="none" x="1030.395263671875" y="355.5">userController</text></g></g><g transform="translate(-126,-86) scale(1,1)"><g><path fill="none" stroke="none"/><text fill="#000000" stroke="none" font-family="Arial" font-size="13px" font-style="normal" font-weight="normal" text-decoration="none" x="901" y="388.5">+create_a_User(req: Request, res: Response)</text></g></g><g transform="translate(-126,-86) scale(1,1)"><g><path fill="none" stroke="none"/><text fill="#000000" stroke="none" font-family="Arial" font-size="13px" font-style="normal" font-weight="normal" text-decoration="none" x="901" y="403.5">+valid_Insert_Request(req: Request)</text></g></g><g transform="translate(-126,-86) scale(1,1)"><g><path fill="none" stroke="none"/><text fill="#000000" stroke="none" font-family="Arial" font-size="13px" font-style="normal" font-weight="normal" text-decoration="none" x="901" y="418.5">+insert_Forms(req: Request, res: Response)</text></g></g><g transform="translate(-126,-86) scale(1,1)"><g><path fill="none" stroke="none"/><text fill="#000000" stroke="none" font-family="Arial" font-size="13px" font-style="normal" font-weight="normal" text-decoration="none" x="901" y="433.5">+check_Request_Completed(req: Request, res: Response)</text></g></g></g></svg>