<svg version="1.1" xmlns="http://www.w3.org/2000/svg" xmlns:xlink="http://www.w3.org/1999/xlink" width="848.0126953125" height="375"><defs/><g><g transform="translate(-334,-358) scale(1,1)"><path fill="#ffffff" stroke="none" d="M 578.9156979758523 385.68 C 578.9156979758523 380.886167936 582.8015403007977 377 587.594970703125 377 C 592.3884011054523 377 596.2742434303977 380.886167936 596.2742434303977 385.68 C 596.2742434303977 390.473832064 592.3884011054523 394.36 587.594970703125 394.36 C 582.8015403007977 394.36 578.9156979758523 390.473832064 578.9156979758523 385.68 Z"/></g><g transform="translate(-334,-358) scale(1,1)"><path fill="none" stroke="#000000" d="M 578.9156979758523 385.68 C 578.9156979758523 380.886167936 582.8015403007977 377 587.594970703125 377 C 592.3884011054523 377 596.2742434303977 380.886167936 596.2742434303977 385.68 C 596.2742434303977 390.473832064 592.3884011054523 394.36 587.594970703125 394.36 C 582.8015403007977 394.36 578.9156979758523 390.473832064 578.9156979758523 385.68 Z" stroke-miterlimit="10"/></g><g transform="translate(-334,-358) scale(1,1)"><path fill="none" stroke="#000000" d="M 587.594970703125 394.36 L 587.594970703125 411.64" stroke-miterlimit="10"/></g><g transform="translate(-334,-358) scale(1,1)"><path fill="none" stroke="#000000" d="M 578.4051525213068 400.84 L 596.7847888849432 400.84" stroke-miterlimit="10"/></g><g transform="translate(-334,-358) scale(1,1)"><path fill="none" stroke="#000000" d="M 587.594970703125 411.64 L 574.8313343394886 429" stroke-miterlimit="10"/></g><g transform="translate(-334,-358) scale(1,1)"><path fill="none" stroke="#000000" d="M 587.594970703125 411.64 L 600.3586070667614 429" stroke-miterlimit="10"/></g><g transform="translate(-334,-358) scale(1,1)"><g><path fill="none" stroke="none"/><text fill="#000000" stroke="none" font-family="Arial" font-size="13px" font-style="normal" font-weight="bold" text-decoration="none" x="529.0791015625" y="449.5">Usuario Formularios</text></g></g><g transform="translate(-334,-358) scale(1,1)"><path fill="#ffffff" stroke="none" d="M 1066.2479733664773 377.68 C 1066.2479733664773 372.886167936 1070.1338156914228 369 1074.92724609375 369 C 1079.7206764960772 369 1083.6065188210227 372.886167936 1083.6065188210227 377.68 C 1083.6065188210227 382.473832064 1079.7206764960772 386.36 1074.92724609375 386.36 C 1070.1338156914228 386.36 1066.2479733664773 382.473832064 1066.2479733664773 377.68 Z"/></g><g transform="translate(-334,-358) scale(1,1)"><path fill="none" stroke="#000000" d="M 1066.2479733664773 377.68 C 1066.2479733664773 372.886167936 1070.1338156914228 369 1074.92724609375 369 C 1079.7206764960772 369 1083.6065188210227 372.886167936 1083.6065188210227 377.68 C 1083.6065188210227 382.473832064 1079.7206764960772 386.36 1074.92724609375 386.36 C 1070.1338156914228 386.36 1066.2479733664773 382.473832064 1066.2479733664773 377.68 Z" stroke-miterlimit="10"/></g><g transform="translate(-334,-358) scale(1,1)"><path fill="none" stroke="#000000" d="M 1074.92724609375 386.36 L 1074.92724609375 403.64" stroke-miterlimit="10"/></g><g transform="translate(-334,-358) scale(1,1)"><path fill="none" stroke="#000000" d="M 1065.7374279119317 392.84 L 1084.1170642755683 392.84" stroke-miterlimit="10"/></g><g transform="translate(-334,-358) scale(1,1)"><path fill="none" stroke="#000000" d="M 1074.92724609375 403.64 L 1062.1636097301136 421" stroke-miterlimit="10"/></g><g transform="translate(-334,-358) scale(1,1)"><path fill="none" stroke="#000000" d="M 1074.92724609375 403.64 L 1087.6908824573864 421" stroke-miterlimit="10"/></g><g transform="translate(-334,-358) scale(1,1)"><g><path fill="none" stroke="none"/><text fill="#000000" stroke="none" font-family="Arial" font-size="13px" font-style="normal" font-weight="bold" text-decoration="none" x="1034.8291015625" y="441.5">Administrador</text></g></g><g transform="translate(-334,-358) scale(1,1)"><path fill="#ffffff" stroke="none" d="M 362.21208469460225 653.6800000000001 C 362.21208469460225 648.8861679360001 366.09792701954774 645 370.891357421875 645 C 375.68478782420226 645 379.57063014914775 648.8861679360001 379.57063014914775 653.6800000000001 C 379.57063014914775 658.473832064 375.68478782420226 662.36 370.891357421875 662.36 C 366.09792701954774 662.36 362.21208469460225 658.473832064 362.21208469460225 653.6800000000001 Z"/></g><g transform="translate(-334,-358) scale(1,1)"><path fill="none" stroke="#000000" d="M 362.21208469460225 653.6800000000001 C 362.21208469460225 648.8861679360001 366.09792701954774 645 370.891357421875 645 C 375.68478782420226 645 379.57063014914775 648.8861679360001 379.57063014914775 653.6800000000001 C 379.57063014914775 658.473832064 375.68478782420226 662.36 370.891357421875 662.36 C 366.09792701954774 662.36 362.21208469460225 658.473832064 362.21208469460225 653.6800000000001 Z" stroke-miterlimit="10"/></g><g transform="translate(-334,-358) scale(1,1)"><path fill="none" stroke="#000000" d="M 370.891357421875 662.36 L 370.891357421875 679.64" stroke-miterlimit="10"/></g><g transform="translate(-334,-358) scale(1,1)"><path fill="none" stroke="#000000" d="M 361.70153924005683 668.84 L 380.08117560369317 668.84" stroke-miterlimit="10"/></g><g transform="translate(-334,-358) scale(1,1)"><path fill="none" stroke="#000000" d="M 370.891357421875 679.64 L 358.12772105823865 697" stroke-miterlimit="10"/></g><g transform="translate(-334,-358) scale(1,1)"><path fill="none" stroke="#000000" d="M 370.891357421875 679.64 L 383.65499378551135 697" stroke-miterlimit="10"/></g><g transform="translate(-334,-358) scale(1,1)"><g><path fill="none" stroke="none"/><text fill="#000000" stroke="none" font-family="Arial" font-size="13px" font-style="normal" font-weight="bold" text-decoration="none" x="349.937744140625" y="717.5">Médico</text></g></g><g transform="translate(-334,-358) scale(1,1)"><path fill="#ffffff" stroke="none" d="M 574.5570553977273 653.6800000000001 C 574.5570553977273 648.8861679360001 578.4428977226727 645 583.236328125 645 C 588.0297585273273 645 591.9156008522727 648.8861679360001 591.9156008522727 653.6800000000001 C 591.9156008522727 658.473832064 588.0297585273273 662.36 583.236328125 662.36 C 578.4428977226727 662.36 574.5570553977273 658.473832064 574.5570553977273 653.6800000000001 Z"/></g><g transform="translate(-334,-358) scale(1,1)"><path fill="none" stroke="#000000" d="M 574.5570553977273 653.6800000000001 C 574.5570553977273 648.8861679360001 578.4428977226727 645 583.236328125 645 C 588.0297585273273 645 591.9156008522727 648.8861679360001 591.9156008522727 653.6800000000001 C 591.9156008522727 658.473832064 588.0297585273273 662.36 583.236328125 662.36 C 578.4428977226727 662.36 574.5570553977273 658.473832064 574.5570553977273 653.6800000000001 Z" stroke-miterlimit="10"/></g><g transform="translate(-334,-358) scale(1,1)"><path fill="none" stroke="#000000" d="M 583.236328125 662.36 L 583.236328125 679.64" stroke-miterlimit="10"/></g><g transform="translate(-334,-358) scale(1,1)"><path fill="none" stroke="#000000" d="M 574.0465099431818 668.84 L 592.4261463068182 668.84" stroke-miterlimit="10"/></g><g transform="translate(-334,-358) scale(1,1)"><path fill="none" stroke="#000000" d="M 583.236328125 679.64 L 570.4726917613636 697" stroke-miterlimit="10"/></g><g transform="translate(-334,-358) scale(1,1)"><path fill="none" stroke="#000000" d="M 583.236328125 679.64 L 595.9999644886364 697" stroke-miterlimit="10"/></g><g transform="translate(-334,-358) scale(1,1)"><g><path fill="none" stroke="none"/><text fill="#000000" stroke="none" font-family="Arial" font-size="13px" font-style="normal" font-weight="bold" text-decoration="none" x="557.94091796875" y="717.5">Paciente</text></g></g><g transform="translate(-334,-358) scale(1,1)"><path fill="#ffffff" stroke="none" d="M 767.3470944602273 653.6800000000001 C 767.3470944602273 648.8861679360001 771.2329367851727 645 776.0263671875 645 C 780.8197975898273 645 784.7056399147727 648.8861679360001 784.7056399147727 653.6800000000001 C 784.7056399147727 658.473832064 780.8197975898273 662.36 776.0263671875 662.36 C 771.2329367851727 662.36 767.3470944602273 658.473832064 767.3470944602273 653.6800000000001 Z"/></g><g transform="translate(-334,-358) scale(1,1)"><path fill="none" stroke="#000000" d="M 767.3470944602273 653.6800000000001 C 767.3470944602273 648.8861679360001 771.2329367851727 645 776.0263671875 645 C 780.8197975898273 645 784.7056399147727 648.8861679360001 784.7056399147727 653.6800000000001 C 784.7056399147727 658.473832064 780.8197975898273 662.36 776.0263671875 662.36 C 771.2329367851727 662.36 767.3470944602273 658.473832064 767.3470944602273 653.6800000000001 Z" stroke-miterlimit="10"/></g><g transform="translate(-334,-358) scale(1,1)"><path fill="none" stroke="#000000" d="M 776.0263671875 662.36 L 776.0263671875 679.64" stroke-miterlimit="10"/></g><g transform="translate(-334,-358) scale(1,1)"><path fill="none" stroke="#000000" d="M 766.8365490056818 668.84 L 785.2161853693182 668.84" stroke-miterlimit="10"/></g><g transform="translate(-334,-358) scale(1,1)"><path fill="none" stroke="#000000" d="M 776.0263671875 679.64 L 763.2627308238636 697" stroke-miterlimit="10"/></g><g transform="translate(-334,-358) scale(1,1)"><path fill="none" stroke="#000000" d="M 776.0263671875 679.64 L 788.7900035511364 697" stroke-miterlimit="10"/></g><g transform="translate(-334,-358) scale(1,1)"><g><path fill="none" stroke="none"/><text fill="#000000" stroke="none" font-family="Arial" font-size="13px" font-style="normal" font-weight="bold" text-decoration="none" x="749.648681640625" y="717.5">Cuidador</text></g></g><g transform="translate(-334,-358) scale(1,1)"><path fill="none" stroke="#000000" d="M 399 647 L 554 456" stroke-miterlimit="10"/></g><g transform="translate(-334,-358) scale(1,1)"><path fill="#FFFFFF" stroke="none" d="M 547.7295899362201 477.08748343525247 L 554 456 L 534.6550479878548 466.47725305830687"/></g><g transform="translate(-334,-358) scale(1,1)"><path fill="none" stroke="#000000" d="M 547.7295899362201 477.08748343525247 L 554 456 L 534.6550479878548 466.47725305830687 L 547.7295899362201 477.08748343525247" stroke-miterlimit="10"/></g><g transform="translate(-334,-358) scale(1,1)"><path fill="none" stroke="#000000" d="M 584 643 L 586 456" stroke-miterlimit="10"/></g><g transform="translate(-334,-358) scale(1,1)"><path fill="#FFFFFF" stroke="none" d="M 594.2011830515504 476.4142253479029 L 586 456 L 577.3640749733311 476.23414932567596"/></g><g transform="translate(-334,-358) scale(1,1)"><path fill="none" stroke="#000000" d="M 594.2011830515504 476.4142253479029 L 586 456 L 577.3640749733311 476.23414932567596 L 594.2011830515504 476.4142253479029" stroke-miterlimit="10"/></g><g transform="translate(-334,-358) scale(1,1)"><path fill="none" stroke="#000000" d="M 748 643 L 616 456" stroke-miterlimit="10"/></g><g transform="translate(-334,-358) scale(1,1)"><path fill="#FFFFFF" stroke="none" d="M 634.5993691191152 467.7500412072002 L 616 456 L 620.8432062130854 477.4602738467507"/></g><g transform="translate(-334,-358) scale(1,1)"><path fill="none" stroke="#000000" d="M 634.5993691191152 467.7500412072002 L 616 456 L 620.8432062130854 477.4602738467507 L 634.5993691191152 467.7500412072002" stroke-miterlimit="10"/></g><g transform="translate(-334,-358) scale(1,1)"><path fill="#ffffff" stroke="none" d="M 1113.3270749289773 561.6800000000001 C 1113.3270749289773 556.8861679360001 1117.2129172539228 553 1122.00634765625 553 C 1126.7997780585772 553 1130.6856203835227 556.8861679360001 1130.6856203835227 561.6800000000001 C 1130.6856203835227 566.473832064 1126.7997780585772 570.36 1122.00634765625 570.36 C 1117.2129172539228 570.36 1113.3270749289773 566.473832064 1113.3270749289773 561.6800000000001 Z"/></g><g transform="translate(-334,-358) scale(1,1)"><path fill="none" stroke="#000000" d="M 1113.3270749289773 561.6800000000001 C 1113.3270749289773 556.8861679360001 1117.2129172539228 553 1122.00634765625 553 C 1126.7997780585772 553 1130.6856203835227 556.8861679360001 1130.6856203835227 561.6800000000001 C 1130.6856203835227 566.473832064 1126.7997780585772 570.36 1122.00634765625 570.36 C 1117.2129172539228 570.36 1113.3270749289773 566.473832064 1113.3270749289773 561.6800000000001 Z" stroke-miterlimit="10"/></g><g transform="translate(-334,-358) scale(1,1)"><path fill="none" stroke="#000000" d="M 1122.00634765625 570.36 L 1122.00634765625 587.64" stroke-miterlimit="10"/></g><g transform="translate(-334,-358) scale(1,1)"><path fill="none" stroke="#000000" d="M 1112.8165294744317 576.84 L 1131.1961658380683 576.84" stroke-miterlimit="10"/></g><g transform="translate(-334,-358) scale(1,1)"><path fill="none" stroke="#000000" d="M 1122.00634765625 587.64 L 1109.2427112926136 605" stroke-miterlimit="10"/></g><g transform="translate(-334,-358) scale(1,1)"><path fill="none" stroke="#000000" d="M 1122.00634765625 587.64 L 1134.7699840198864 605" stroke-miterlimit="10"/></g><g transform="translate(-334,-358) scale(1,1)"><g><path fill="none" stroke="none"/><text fill="#000000" stroke="none" font-family="Arial" font-size="13px" font-style="normal" font-weight="bold" text-decoration="none" x="1081.187744140625" y="625.5">Administrativo</text></g></g></g></svg>