<svg version="1.1" xmlns="http://www.w3.org/2000/svg" xmlns:xlink="http://www.w3.org/1999/xlink" width="1127.3017578125" height="248"><defs/><g><g transform="translate(-38,-222) scale(1,1)"><rect fill="#C0C0C0" stroke="none" x="65" y="311" width="157.68359375" height="44" opacity="0.2"/></g><g transform="translate(-38,-222) scale(1,1)"><rect fill="#ffffff" stroke="none" x="58" y="304" width="157.68359375" height="44"/></g><g transform="translate(-38,-222) scale(1,1)"><path fill="none" stroke="#000000" d="M 58 304 L 215.68359375 304 L 215.68359375 348 L 58 348 L 58 304 Z Z" stroke-miterlimit="10"/></g><g transform="translate(-38,-222) scale(1,1)"><rect fill="#ffffff" stroke="none" x="48" y="311" width="20" height="10"/></g><g transform="translate(-38,-222) scale(1,1)"><path fill="none" stroke="#000000" d="M 48 311 L 68 311 L 68 321 L 48 321 L 48 311 Z Z" stroke-miterlimit="10"/></g><g transform="translate(-38,-222) scale(1,1)"><rect fill="#ffffff" stroke="none" x="48" y="331" width="20" height="10"/></g><g transform="translate(-38,-222) scale(1,1)"><path fill="none" stroke="#000000" d="M 48 331 L 68 331 L 68 341 L 48 341 L 48 331 Z Z" stroke-miterlimit="10"/></g><g transform="translate(-38,-222) scale(1,1)"><g><path fill="none" stroke="none"/><text fill="#000000" stroke="none" font-family="Arial" font-size="13px" font-style="normal" font-weight="bold" text-decoration="none" x="89.10546875" y="323.5">EvDiscover-Bizagi</text></g></g><g transform="translate(-38,-222) scale(1,1)"><rect fill="#C0C0C0" stroke="none" x="833" y="311" width="115.82080078125" height="44" opacity="0.2"/></g><g transform="translate(-38,-222) scale(1,1)"><rect fill="#ffffff" stroke="none" x="826" y="304" width="115.82080078125" height="44"/></g><g transform="translate(-38,-222) scale(1,1)"><path fill="none" stroke="#000000" d="M 826 304 L 941.82080078125 304 L 941.82080078125 348 L 826 348 L 826 304 Z Z" stroke-miterlimit="10"/></g><g transform="translate(-38,-222) scale(1,1)"><rect fill="#ffffff" stroke="none" x="816" y="311" width="20" height="10"/></g><g transform="translate(-38,-222) scale(1,1)"><path fill="none" stroke="#000000" d="M 816 311 L 836 311 L 836 321 L 816 321 L 816 311 Z Z" stroke-miterlimit="10"/></g><g transform="translate(-38,-222) scale(1,1)"><rect fill="#ffffff" stroke="none" x="816" y="331" width="20" height="10"/></g><g transform="translate(-38,-222) scale(1,1)"><path fill="none" stroke="#000000" d="M 816 331 L 836 331 L 836 341 L 816 341 L 816 331 Z Z" stroke-miterlimit="10"/></g><g transform="translate(-38,-222) scale(1,1)"><g><path fill="none" stroke="none"/><text fill="#000000" stroke="none" font-family="Arial" font-size="13px" font-style="normal" font-weight="normal" text-decoration="none" x="860.00634765625" y="321.5">«Service»</text></g></g><g transform="translate(-38,-222) scale(1,1)"><g><path fill="none" stroke="none"/><text fill="#000000" stroke="none" font-family="Arial" font-size="13px" font-style="normal" font-weight="bold" text-decoration="none" x="843.40087890625" y="336.5">EvDiscover-API</text></g></g><g transform="translate(-38,-222) scale(1,1)"><rect fill="#C0C0C0" stroke="none" x="793" y="423" width="164.9326171875" height="44" opacity="0.2"/></g><g transform="translate(-38,-222) scale(1,1)"><rect fill="#ffffff" stroke="none" x="786" y="416" width="164.9326171875" height="44"/></g><g transform="translate(-38,-222) scale(1,1)"><path fill="none" stroke="#000000" d="M 786 416 L 950.9326171875 416 L 950.9326171875 460 L 786 460 L 786 416 Z Z" stroke-miterlimit="10"/></g><g transform="translate(-38,-222) scale(1,1)"><rect fill="#ffffff" stroke="none" x="776" y="423" width="20" height="10"/></g><g transform="translate(-38,-222) scale(1,1)"><path fill="none" stroke="#000000" d="M 776 423 L 796 423 L 796 433 L 776 433 L 776 423 Z Z" stroke-miterlimit="10"/></g><g transform="translate(-38,-222) scale(1,1)"><rect fill="#ffffff" stroke="none" x="776" y="443" width="20" height="10"/></g><g transform="translate(-38,-222) scale(1,1)"><path fill="none" stroke="#000000" d="M 776 443 L 796 443 L 796 453 L 776 453 L 776 443 Z Z" stroke-miterlimit="10"/></g><g transform="translate(-38,-222) scale(1,1)"><g><path fill="none" stroke="none"/><text fill="#000000" stroke="none" font-family="Arial" font-size="13px" font-style="normal" font-weight="bold" text-decoration="none" x="804.84814453125" y="435.5">EvDiscover-Forms Web</text></g></g><g transform="translate(-38,-222) scale(1,1)"><path fill="none" stroke="#000000" d="M 307.7649686210234 350.474529315351 A 11.5 11.5 0 0 1 306.2350313789766 327.525470684649" stroke-miterlimit="10"/></g><g transform="translate(-38,-222) scale(1,1)"><g><path fill="none" stroke="none"/><text fill="#000000" stroke="none" font-family="Arial" font-size="13px" font-style="normal" font-weight="bold" text-decoration="none" x="280.83544921875" y="370.5">Conector</text></g></g><g transform="translate(-38,-222) scale(1,1)"><path fill="none" stroke="#000000" d="M 217 339 L 295.7099609375 339.75266927083334" stroke-miterlimit="10"/></g><g transform="translate(-38,-222) scale(1,1)"><rect fill="#C0C0C0" stroke="none" x="521" y="239" width="169.96630859375" height="44" opacity="0.2"/></g><g transform="translate(-38,-222) scale(1,1)"><rect fill="#ffffff" stroke="none" x="514" y="232" width="169.96630859375" height="44"/></g><g transform="translate(-38,-222) scale(1,1)"><path fill="none" stroke="#000000" d="M 514 232 L 683.96630859375 232 L 683.96630859375 276 L 514 276 L 514 232 Z Z" stroke-miterlimit="10"/></g><g transform="translate(-38,-222) scale(1,1)"><rect fill="#ffffff" stroke="none" x="504" y="239" width="20" height="10"/></g><g transform="translate(-38,-222) scale(1,1)"><path fill="none" stroke="#000000" d="M 504 239 L 524 239 L 524 249 L 504 249 L 504 239 Z Z" stroke-miterlimit="10"/></g><g transform="translate(-38,-222) scale(1,1)"><rect fill="#ffffff" stroke="none" x="504" y="259" width="20" height="10"/></g><g transform="translate(-38,-222) scale(1,1)"><path fill="none" stroke="#000000" d="M 504 259 L 524 259 L 524 269 L 504 269 L 504 259 Z Z" stroke-miterlimit="10"/></g><g transform="translate(-38,-222) scale(1,1)"><g><path fill="none" stroke="none"/><text fill="#000000" stroke="none" font-family="Arial" font-size="13px" font-style="normal" font-weight="bold" text-decoration="none" x="563.158203125" y="251.5">Conector user</text></g></g><g transform="translate(-38,-222) scale(1,1)"><rect fill="#C0C0C0" stroke="none" x="521" y="319" width="169.96630859375" height="44" opacity="0.2"/></g><g transform="translate(-38,-222) scale(1,1)"><rect fill="#ffffff" stroke="none" x="514" y="312" width="169.96630859375" height="44"/></g><g transform="translate(-38,-222) scale(1,1)"><path fill="none" stroke="#000000" d="M 514 312 L 683.96630859375 312 L 683.96630859375 356 L 514 356 L 514 312 Z Z" stroke-miterlimit="10"/></g><g transform="translate(-38,-222) scale(1,1)"><rect fill="#ffffff" stroke="none" x="504" y="319" width="20" height="10"/></g><g transform="translate(-38,-222) scale(1,1)"><path fill="none" stroke="#000000" d="M 504 319 L 524 319 L 524 329 L 504 329 L 504 319 Z Z" stroke-miterlimit="10"/></g><g transform="translate(-38,-222) scale(1,1)"><rect fill="#ffffff" stroke="none" x="504" y="339" width="20" height="10"/></g><g transform="translate(-38,-222) scale(1,1)"><path fill="none" stroke="#000000" d="M 504 339 L 524 339 L 524 349 L 504 349 L 504 339 Z Z" stroke-miterlimit="10"/></g><g transform="translate(-38,-222) scale(1,1)"><g><path fill="none" stroke="none"/><text fill="#000000" stroke="none" font-family="Arial" font-size="13px" font-style="normal" font-weight="bold" text-decoration="none" x="554.8427734375" y="331.5">Conector estudio</text></g></g><g transform="translate(-38,-222) scale(1,1)"><rect fill="#C0C0C0" stroke="none" x="521" y="391" width="169.96630859375" height="44" opacity="0.2"/></g><g transform="translate(-38,-222) scale(1,1)"><rect fill="#ffffff" stroke="none" x="514" y="384" width="169.96630859375" height="44"/></g><g transform="translate(-38,-222) scale(1,1)"><path fill="none" stroke="#000000" d="M 514 384 L 683.96630859375 384 L 683.96630859375 428 L 514 428 L 514 384 Z Z" stroke-miterlimit="10"/></g><g transform="translate(-38,-222) scale(1,1)"><rect fill="#ffffff" stroke="none" x="504" y="391" width="20" height="10"/></g><g transform="translate(-38,-222) scale(1,1)"><path fill="none" stroke="#000000" d="M 504 391 L 524 391 L 524 401 L 504 401 L 504 391 Z Z" stroke-miterlimit="10"/></g><g transform="translate(-38,-222) scale(1,1)"><rect fill="#ffffff" stroke="none" x="504" y="411" width="20" height="10"/></g><g transform="translate(-38,-222) scale(1,1)"><path fill="none" stroke="#000000" d="M 504 411 L 524 411 L 524 421 L 504 421 L 504 411 Z Z" stroke-miterlimit="10"/></g><g transform="translate(-38,-222) scale(1,1)"><g><path fill="none" stroke="none"/><text fill="#000000" stroke="none" font-family="Arial" font-size="13px" font-style="normal" font-weight="bold" text-decoration="none" x="554.122314453125" y="403.5">Conector request</text></g></g><g transform="translate(-38,-222) scale(1,1)"><path fill="#C0C0C0" stroke="none" d="M 429.7099609375 274.5 C 429.7099609375 268.1487248 434.8586857375 263 441.2099609375 263 C 447.5612361375 263 452.7099609375 268.1487248 452.7099609375 274.5 C 452.7099609375 280.8512752 447.5612361375 286 441.2099609375 286 C 434.8586857375 286 429.7099609375 280.8512752 429.7099609375 274.5 Z" opacity="0.2"/></g><g transform="translate(-38,-222) scale(1,1)"><path fill="none" stroke="#000000" d="M 441.7708332279495 275.4772726123085 A 11.5 11.5 0 0 1 426.2291667720505 258.5227273876915" stroke-miterlimit="10"/></g><g transform="translate(-38,-222) scale(1,1)"><path fill="#ffffff" stroke="none" d="M 425.7099609375 267.5 C 425.7099609375 262.8055792 429.5155401375 259 434.2099609375 259 C 438.9043817375 259 442.7099609375 262.8055792 442.7099609375 267.5 C 442.7099609375 272.1944208 438.9043817375 276 434.2099609375 276 C 429.5155401375 276 425.7099609375 272.1944208 425.7099609375 267.5 Z"/></g><g transform="translate(-38,-222) scale(1,1)"><path fill="none" stroke="#000000" d="M 425.7099609375 267.5 C 425.7099609375 262.8055792 429.5155401375 259 434.2099609375 259 C 438.9043817375 259 442.7099609375 262.8055792 442.7099609375 267.5 C 442.7099609375 272.1944208 438.9043817375 276 434.2099609375 276 C 429.5155401375 276 425.7099609375 272.1944208 425.7099609375 267.5 Z" stroke-miterlimit="10"/></g><g transform="translate(-38,-222) scale(1,1)"><g><path fill="none" stroke="none"/><text fill="#000000" stroke="none" font-family="Arial" font-size="13px" font-style="normal" font-weight="bold" text-decoration="none" x="421.5654296875" y="298.5">user</text></g></g><g transform="translate(-38,-222) scale(1,1)"><path fill="none" stroke="#000000" d="M 504 267 L 445.7099609375 267" stroke-miterlimit="10"/></g><g transform="translate(-38,-222) scale(1,1)"><path fill="none" stroke="#000000" d="M 658 277 L 802 328 L 815 328" stroke-miterlimit="10" stroke-dasharray="3"/></g><g transform="translate(-38,-222) scale(1,1)"><path fill="#FFFFFF" stroke="none" d="M 794.6746502847517 336.419035512032 L 815 328 L 794.6746502847517 319.580964487968"/></g><g transform="translate(-38,-222) scale(1,1)"><path fill="none" stroke="#000000" d="M 794.6746502847517 336.419035512032 L 815 328 L 794.6746502847517 319.580964487968 L 794.6746502847517 336.419035512032" stroke-miterlimit="10"/></g><g transform="translate(-38,-222) scale(1,1)"><path fill="none" stroke="#000000" d="M 685 331 L 815 328" stroke-miterlimit="10" stroke-dasharray="3"/></g><g transform="translate(-38,-222) scale(1,1)"><path fill="#FFFFFF" stroke="none" d="M 794.874293922189 336.8857163396973 L 815 328 L 794.4858264767125 320.05212703571266"/></g><g transform="translate(-38,-222) scale(1,1)"><path fill="none" stroke="#000000" d="M 794.874293922189 336.8857163396973 L 815 328 L 794.4858264767125 320.05212703571266 L 794.874293922189 336.8857163396973" stroke-miterlimit="10"/></g><g transform="translate(-38,-222) scale(1,1)"><path fill="none" stroke="#000000" d="M 652 383 L 792 328 L 815 327" stroke-miterlimit="10" stroke-dasharray="3"/></g><g transform="translate(-38,-222) scale(1,1)"><path fill="#FFFFFF" stroke="none" d="M 795.0595337299873 336.2939660497811 L 815 327 L 794.3281346625346 319.47178749837013"/></g><g transform="translate(-38,-222) scale(1,1)"><path fill="none" stroke="#000000" d="M 795.0595337299873 336.2939660497811 L 815 327 L 794.3281346625346 319.47178749837013 L 795.0595337299873 336.2939660497811" stroke-miterlimit="10"/></g><g transform="translate(-38,-222) scale(1,1)"><path fill="#C0C0C0" stroke="none" d="M 429.7099609375 354.5 C 429.7099609375 348.1487248 434.8586857375 343 441.2099609375 343 C 447.5612361375 343 452.7099609375 348.1487248 452.7099609375 354.5 C 452.7099609375 360.8512752 447.5612361375 366 441.2099609375 366 C 434.8586857375 366 429.7099609375 360.8512752 429.7099609375 354.5 Z" opacity="0.2"/></g><g transform="translate(-38,-222) scale(1,1)"><path fill="none" stroke="#000000" d="M 434 358.5 A 11.5 11.5 0 0 1 434 335.5" stroke-miterlimit="10"/></g><g transform="translate(-38,-222) scale(1,1)"><path fill="#ffffff" stroke="none" d="M 425.7099609375 347.5 C 425.7099609375 342.8055792 429.5155401375 339 434.2099609375 339 C 438.9043817375 339 442.7099609375 342.8055792 442.7099609375 347.5 C 442.7099609375 352.1944208 438.9043817375 356 434.2099609375 356 C 429.5155401375 356 425.7099609375 352.1944208 425.7099609375 347.5 Z"/></g><g transform="translate(-38,-222) scale(1,1)"><path fill="none" stroke="#000000" d="M 425.7099609375 347.5 C 425.7099609375 342.8055792 429.5155401375 339 434.2099609375 339 C 438.9043817375 339 442.7099609375 342.8055792 442.7099609375 347.5 C 442.7099609375 352.1944208 438.9043817375 356 434.2099609375 356 C 429.5155401375 356 425.7099609375 352.1944208 425.7099609375 347.5 Z" stroke-miterlimit="10"/></g><g transform="translate(-38,-222) scale(1,1)"><g><path fill="none" stroke="none"/><text fill="#000000" stroke="none" font-family="Arial" font-size="13px" font-style="normal" font-weight="bold" text-decoration="none" x="413.25" y="378.5">estudio</text></g></g><g transform="translate(-38,-222) scale(1,1)"><path fill="none" stroke="#000000" d="M 504 347 L 445.7099609375 347" stroke-miterlimit="10"/></g><g transform="translate(-38,-222) scale(1,1)"><path fill="#C0C0C0" stroke="none" d="M 429.7099609375 418.5 C 429.7099609375 412.1487248 434.8586857375 407 441.2099609375 407 C 447.5612361375 407 452.7099609375 412.1487248 452.7099609375 418.5 C 452.7099609375 424.8512752 447.5612361375 430 441.2099609375 430 C 434.8586857375 430 429.7099609375 424.8512752 429.7099609375 418.5 Z" opacity="0.2"/></g><g transform="translate(-38,-222) scale(1,1)"><path fill="none" stroke="#000000" d="M 431.8049989203244 422.28857698118867 A 11.5 11.5 0 0 1 436.1950010796756 399.71142301881133" stroke-miterlimit="10"/></g><g transform="translate(-38,-222) scale(1,1)"><path fill="#ffffff" stroke="none" d="M 425.7099609375 411.5 C 425.7099609375 406.8055792 429.5155401375 403 434.2099609375 403 C 438.9043817375 403 442.7099609375 406.8055792 442.7099609375 411.5 C 442.7099609375 416.1944208 438.9043817375 420 434.2099609375 420 C 429.5155401375 420 425.7099609375 416.1944208 425.7099609375 411.5 Z"/></g><g transform="translate(-38,-222) scale(1,1)"><path fill="none" stroke="#000000" d="M 425.7099609375 411.5 C 425.7099609375 406.8055792 429.5155401375 403 434.2099609375 403 C 438.9043817375 403 442.7099609375 406.8055792 442.7099609375 411.5 C 442.7099609375 416.1944208 438.9043817375 420 434.2099609375 420 C 429.5155401375 420 425.7099609375 416.1944208 425.7099609375 411.5 Z" stroke-miterlimit="10"/></g><g transform="translate(-38,-222) scale(1,1)"><g><path fill="none" stroke="none"/><text fill="#000000" stroke="none" font-family="Arial" font-size="13px" font-style="normal" font-weight="bold" text-decoration="none" x="412.529541015625" y="442.5">request</text></g></g><g transform="translate(-38,-222) scale(1,1)"><path fill="none" stroke="#000000" d="M 504 411 L 445.7099609375 411" stroke-miterlimit="10"/></g><g transform="translate(-38,-222) scale(1,1)"><path fill="none" stroke="#000000" d="M 351 327 L 422.7099609375 277.3492024739583" stroke-miterlimit="10"/></g><g transform="translate(-38,-222) scale(1,1)"><path fill="none" stroke="#000000" d="M 351 377 L 422.7099609375 408.8047146267361" stroke-miterlimit="10"/></g><g transform="translate(-38,-222) scale(1,1)"><path fill="none" stroke="#000000" d="M 366 347 L 422.7099609375 347" stroke-miterlimit="10"/></g><g transform="translate(-38,-222) scale(1,1)"><rect fill="#C0C0C0" stroke="none" x="65" y="407" width="156.28076171875" height="44" opacity="0.2"/></g><g transform="translate(-38,-222) scale(1,1)"><rect fill="#ffffff" stroke="none" x="58" y="400" width="156.28076171875" height="44"/></g><g transform="translate(-38,-222) scale(1,1)"><path fill="none" stroke="#000000" d="M 58 400 L 214.28076171875 400 L 214.28076171875 444 L 58 444 L 58 400 Z Z" stroke-miterlimit="10"/></g><g transform="translate(-38,-222) scale(1,1)"><rect fill="#ffffff" stroke="none" x="48" y="407" width="20" height="10"/></g><g transform="translate(-38,-222) scale(1,1)"><path fill="none" stroke="#000000" d="M 48 407 L 68 407 L 68 417 L 48 417 L 48 407 Z Z" stroke-miterlimit="10"/></g><g transform="translate(-38,-222) scale(1,1)"><rect fill="#ffffff" stroke="none" x="48" y="427" width="20" height="10"/></g><g transform="translate(-38,-222) scale(1,1)"><path fill="none" stroke="#000000" d="M 48 427 L 68 427 L 68 437 L 48 437 L 48 427 Z Z" stroke-miterlimit="10"/></g><g transform="translate(-38,-222) scale(1,1)"><g><path fill="none" stroke="none"/><text fill="#000000" stroke="none" font-family="Arial" font-size="13px" font-style="normal" font-weight="bold" text-decoration="none" x="76.838623046875" y="419.5">Servidor SQL Express</text></g></g><g transform="translate(-38,-222) scale(1,1)"><path fill="none" stroke="#000000" d="M 131 349 L 131 399" stroke-miterlimit="10" stroke-dasharray="3"/></g><g transform="translate(-38,-222) scale(1,1)"><path fill="none" stroke="#000000" d="M 126.79048224398402 388.83732514237585 L 131 399 L 135.209517756016 388.83732514237585" stroke-miterlimit="10"/></g><g transform="translate(-38,-222) scale(1,1)"><rect fill="#C0C0C0" stroke="none" x="1040" y="370" width="122.3017578125" height="44" opacity="0.2"/></g><g transform="translate(-38,-222) scale(1,1)"><rect fill="#ffffff" stroke="none" x="1033" y="363" width="122.3017578125" height="44"/></g><g transform="translate(-38,-222) scale(1,1)"><path fill="none" stroke="#000000" d="M 1033 363 L 1155.3017578125 363 L 1155.3017578125 407 L 1033 407 L 1033 363 Z Z" stroke-miterlimit="10"/></g><g transform="translate(-38,-222) scale(1,1)"><rect fill="#ffffff" stroke="none" x="1023" y="370" width="20" height="10"/></g><g transform="translate(-38,-222) scale(1,1)"><path fill="none" stroke="#000000" d="M 1023 370 L 1043 370 L 1043 380 L 1023 380 L 1023 370 Z Z" stroke-miterlimit="10"/></g><g transform="translate(-38,-222) scale(1,1)"><rect fill="#ffffff" stroke="none" x="1023" y="390" width="20" height="10"/></g><g transform="translate(-38,-222) scale(1,1)"><path fill="none" stroke="#000000" d="M 1023 390 L 1043 390 L 1043 400 L 1023 400 L 1023 390 Z Z" stroke-miterlimit="10"/></g><g transform="translate(-38,-222) scale(1,1)"><g><path fill="none" stroke="none"/><text fill="#000000" stroke="none" font-family="Arial" font-size="13px" font-style="normal" font-weight="bold" text-decoration="none" x="1070.246826171875" y="382.5">mongoDB</text></g></g><g transform="translate(-38,-222) scale(1,1)"><path fill="none" stroke="#000000" d="M 952 417 L 1022 401" stroke-miterlimit="10" stroke-dasharray="3"/></g><g transform="translate(-38,-222) scale(1,1)"><path fill="none" stroke="#000000" d="M 1013.030814923925 407.3681802008984 L 1022 401 L 1011.154845007117 399.1608118148634" stroke-miterlimit="10"/></g><g transform="translate(-38,-222) scale(1,1)"><path fill="none" stroke="#000000" d="M 943 344 L 1022 366" stroke-miterlimit="10" stroke-dasharray="3"/></g><g transform="translate(-38,-222) scale(1,1)"><path fill="none" stroke="#000000" d="M 1011.0805594523725 367.32884089598025 L 1022 366 L 1013.3391571333436 359.2184219506749" stroke-miterlimit="10"/></g></g></svg>