<svg version="1.1" xmlns="http://www.w3.org/2000/svg" xmlns:xlink="http://www.w3.org/1999/xlink" width="758.75439453125" height="307"><defs/><g><g transform="translate(-366,-285) scale(1,1)"><rect fill="#C0C0C0" stroke="none" x="383" y="391" width="101.49169921875" height="44" opacity="0.2"/></g><g transform="translate(-366,-285) scale(1,1)"><rect fill="#ffffff" stroke="none" x="376" y="384" width="101.49169921875" height="44"/></g><g transform="translate(-366,-285) scale(1,1)"><path fill="none" stroke="#000000" d="M 376 384 L 477.49169921875 384 L 477.49169921875 428 L 376 428 L 376 384 Z Z" stroke-miterlimit="10"/></g><g transform="translate(-366,-285) scale(1,1)"><path fill="none" stroke="#000000" d="M 376 409 L 477.49169921875 409" stroke-miterlimit="10"/></g><g transform="translate(-366,-285) scale(1,1)"><path fill="none" stroke="#000000" d="M 376 419 L 477.49169921875 419" stroke-miterlimit="10"/></g><g transform="translate(-366,-285) scale(1,1)"><g><path fill="none" stroke="none"/><text fill="#000000" stroke="none" font-family="Arial" font-size="13px" font-style="normal" font-weight="bold" text-decoration="none" x="383.40087890625" y="403.5">EvDiscoverAPI</text></g></g><g transform="translate(-366,-285) scale(1,1)"><rect fill="#C0C0C0" stroke="none" x="752" y="303" width="111.2353515625" height="70" opacity="0.2"/></g><g transform="translate(-366,-285) scale(1,1)"><rect fill="#ffffff" stroke="none" x="745" y="296" width="111.2353515625" height="70"/></g><g transform="translate(-366,-285) scale(1,1)"><path fill="none" stroke="#000000" d="M 745 296 L 856.2353515625 296 L 856.2353515625 366 L 745 366 L 745 296 Z Z" stroke-miterlimit="10"/></g><g transform="translate(-366,-285) scale(1,1)"><path fill="none" stroke="#000000" d="M 745 334 L 856.2353515625 334" stroke-miterlimit="10"/></g><g transform="translate(-366,-285) scale(1,1)"><path fill="none" stroke="#000000" d="M 745 344 L 856.2353515625 344" stroke-miterlimit="10"/></g><g transform="translate(-366,-285) scale(1,1)"><g><path fill="none" stroke="none"/><text fill="#000000" stroke="none" font-family="Arial" font-size="13px" font-style="normal" font-weight="normal" text-decoration="none" x="765.569091796875" y="313.5">«Resource»</text></g></g><g transform="translate(-366,-285) scale(1,1)"><g><path fill="none" stroke="none"/><text fill="#000000" stroke="none" font-family="Arial" font-size="13px" font-style="normal" font-weight="bold" text-decoration="none" x="775.687255859375" y="328.5">Estudios</text></g></g><g transform="translate(-366,-285) scale(1,1)"><g><path fill="none" stroke="none"/><text fill="#000000" stroke="none" font-family="Arial" font-size="13px" font-style="normal" font-weight="normal" text-decoration="none" x="750" y="361.5">«POST» create()</text></g></g><g transform="translate(-366,-285) scale(1,1)"><rect fill="#C0C0C0" stroke="none" x="752" y="415" width="114.84716796875" height="70" opacity="0.2"/></g><g transform="translate(-366,-285) scale(1,1)"><rect fill="#ffffff" stroke="none" x="745" y="408" width="114.84716796875" height="70"/></g><g transform="translate(-366,-285) scale(1,1)"><path fill="none" stroke="#000000" d="M 745 408 L 859.84716796875 408 L 859.84716796875 478 L 745 478 L 745 408 Z Z" stroke-miterlimit="10"/></g><g transform="translate(-366,-285) scale(1,1)"><path fill="none" stroke="#000000" d="M 745 446 L 859.84716796875 446" stroke-miterlimit="10"/></g><g transform="translate(-366,-285) scale(1,1)"><path fill="none" stroke="#000000" d="M 745 456 L 859.84716796875 456" stroke-miterlimit="10"/></g><g transform="translate(-366,-285) scale(1,1)"><g><path fill="none" stroke="none"/><text fill="#000000" stroke="none" font-family="Arial" font-size="13px" font-style="normal" font-weight="normal" text-decoration="none" x="767.375" y="425.5">«Resource»</text></g></g><g transform="translate(-366,-285) scale(1,1)"><g><path fill="none" stroke="none"/><text fill="#000000" stroke="none" font-family="Arial" font-size="13px" font-style="normal" font-weight="bold" text-decoration="none" x="788.699951171875" y="440.5">User</text></g></g><g transform="translate(-366,-285) scale(1,1)"><g><path fill="none" stroke="none"/><text fill="#000000" stroke="none" font-family="Arial" font-size="13px" font-style="normal" font-weight="normal" text-decoration="none" x="750" y="473.5">«POST» create()</text></g></g><g transform="translate(-366,-285) scale(1,1)"><rect fill="#C0C0C0" stroke="none" x="751" y="519" width="107.25537109375" height="70" opacity="0.2"/></g><g transform="translate(-366,-285) scale(1,1)"><rect fill="#ffffff" stroke="none" x="744" y="512" width="107.25537109375" height="70"/></g><g transform="translate(-366,-285) scale(1,1)"><path fill="none" stroke="#000000" d="M 744 512 L 851.25537109375 512 L 851.25537109375 582 L 744 582 L 744 512 Z Z" stroke-miterlimit="10"/></g><g transform="translate(-366,-285) scale(1,1)"><path fill="none" stroke="#000000" d="M 744 550 L 851.25537109375 550" stroke-miterlimit="10"/></g><g transform="translate(-366,-285) scale(1,1)"><path fill="none" stroke="#000000" d="M 744 560 L 851.25537109375 560" stroke-miterlimit="10"/></g><g transform="translate(-366,-285) scale(1,1)"><g><path fill="none" stroke="none"/><text fill="#000000" stroke="none" font-family="Arial" font-size="13px" font-style="normal" font-weight="normal" text-decoration="none" x="762.5791015625" y="529.5">«Resource»</text></g></g><g transform="translate(-366,-285) scale(1,1)"><g><path fill="none" stroke="none"/><text fill="#000000" stroke="none" font-family="Arial" font-size="13px" font-style="normal" font-weight="bold" text-decoration="none" x="770.167724609375" y="544.5">Requests</text></g></g><g transform="translate(-366,-285) scale(1,1)"><g><path fill="none" stroke="none"/><text fill="#000000" stroke="none" font-family="Arial" font-size="13px" font-style="normal" font-weight="normal" text-decoration="none" x="749" y="577.5">«POST» create()</text></g></g><g transform="translate(-366,-285) scale(1,1)"><path fill="none" stroke="#000000" d="M 478 395 L 744 342" stroke-miterlimit="10"/></g><g transform="translate(-366,-285) scale(1,1)"><g><path fill="none" stroke="none"/><text fill="#000000" stroke="none" font-family="Arial" font-size="13px" font-style="normal" font-weight="normal" text-decoration="none" x="571.194091796875" y="359.5">/api/estudios</text></g></g><g transform="translate(-366,-285) scale(1,1)"><g><path fill="none" stroke="none"/><text fill="#000000" stroke="none" font-family="Arial" font-size="13px" font-style="normal" font-weight="normal" text-decoration="none" x="556.5" y="344.5">«ResourcePath»</text></g></g><g transform="translate(-366,-285) scale(1,1)"><path fill="none" stroke="#000000" d="M 478 411 L 744 437" stroke-miterlimit="10"/></g><g transform="translate(-366,-285) scale(1,1)"><g><path fill="none" stroke="none"/><text fill="#000000" stroke="none" font-family="Arial" font-size="13px" font-style="normal" font-weight="normal" text-decoration="none" x="583.319580078125" y="415.5">/api/users</text></g></g><g transform="translate(-366,-285) scale(1,1)"><g><path fill="none" stroke="none"/><text fill="#000000" stroke="none" font-family="Arial" font-size="13px" font-style="normal" font-weight="normal" text-decoration="none" x="564.5" y="400.5">«ResourcePath»</text></g></g><g transform="translate(-366,-285) scale(1,1)"><path fill="none" stroke="#000000" d="M 478 426 L 743 526" stroke-miterlimit="10"/></g><g transform="translate(-366,-285) scale(1,1)"><g><path fill="none" stroke="none"/><text fill="#000000" stroke="none" font-family="Arial" font-size="13px" font-style="normal" font-weight="normal" text-decoration="none" x="567.200439453125" y="508.5">/api/requests</text></g></g><g transform="translate(-366,-285) scale(1,1)"><g><path fill="none" stroke="none"/><text fill="#000000" stroke="none" font-family="Arial" font-size="13px" font-style="normal" font-weight="normal" text-decoration="none" x="534.5" y="492.5">«ResourcePath»</text></g></g><g transform="translate(-366,-285) scale(1,1)"><rect fill="#C0C0C0" stroke="none" x="991" y="303" width="111.55908203125" height="70" opacity="0.2"/></g><g transform="translate(-366,-285) scale(1,1)"><rect fill="#ffffff" stroke="none" x="984" y="296" width="111.55908203125" height="70"/></g><g transform="translate(-366,-285) scale(1,1)"><path fill="none" stroke="#000000" d="M 984 296 L 1095.55908203125 296 L 1095.55908203125 366 L 984 366 L 984 296 Z Z" stroke-miterlimit="10"/></g><g transform="translate(-366,-285) scale(1,1)"><path fill="none" stroke="#000000" d="M 984 334 L 1095.55908203125 334" stroke-miterlimit="10"/></g><g transform="translate(-366,-285) scale(1,1)"><path fill="none" stroke="#000000" d="M 984 344 L 1095.55908203125 344" stroke-miterlimit="10"/></g><g transform="translate(-366,-285) scale(1,1)"><g><path fill="none" stroke="none"/><text fill="#000000" stroke="none" font-family="Arial" font-size="13px" font-style="normal" font-weight="normal" text-decoration="none" x="1004.73095703125" y="313.5">«Resource»</text></g></g><g transform="translate(-366,-285) scale(1,1)"><g><path fill="none" stroke="none"/><text fill="#000000" stroke="none" font-family="Arial" font-size="13px" font-style="normal" font-weight="bold" text-decoration="none" x="993.168701171875" y="328.5">EstudiosEstudio</text></g></g><g transform="translate(-366,-285) scale(1,1)"><g><path fill="none" stroke="none"/><text fill="#000000" stroke="none" font-family="Arial" font-size="13px" font-style="normal" font-weight="normal" text-decoration="none" x="989" y="361.5">«PUT» modify()</text></g></g><g transform="translate(-366,-285) scale(1,1)"><path fill="none" stroke="#000000" d="M 857 331 L 983 331" stroke-miterlimit="10"/></g><g transform="translate(-366,-285) scale(1,1)"><g><path fill="none" stroke="none"/><text fill="#000000" stroke="none" font-family="Arial" font-size="13px" font-style="normal" font-weight="normal" text-decoration="none" x="886.971435546875" y="322.5">/{estudioId}</text></g></g><g transform="translate(-366,-285) scale(1,1)"><g><path fill="none" stroke="none"/><text fill="#000000" stroke="none" font-family="Arial" font-size="13px" font-style="normal" font-weight="normal" text-decoration="none" x="871.5" y="307.5">«ResourcePath»</text></g></g><g transform="translate(-366,-285) scale(1,1)"><rect fill="#C0C0C0" stroke="none" x="991" y="527" width="130.75439453125" height="57" opacity="0.2"/></g><g transform="translate(-366,-285) scale(1,1)"><rect fill="#ffffff" stroke="none" x="984" y="520" width="130.75439453125" height="57"/></g><g transform="translate(-366,-285) scale(1,1)"><path fill="none" stroke="#000000" d="M 984 520 L 1114.75439453125 520 L 1114.75439453125 577 L 984 577 L 984 520 Z Z" stroke-miterlimit="10"/></g><g transform="translate(-366,-285) scale(1,1)"><path fill="none" stroke="#000000" d="M 984 545 L 1114.75439453125 545" stroke-miterlimit="10"/></g><g transform="translate(-366,-285) scale(1,1)"><path fill="none" stroke="#000000" d="M 984 555 L 1114.75439453125 555" stroke-miterlimit="10"/></g><g transform="translate(-366,-285) scale(1,1)"><g><path fill="none" stroke="none"/><text fill="#000000" stroke="none" font-family="Arial" font-size="13px" font-style="normal" font-weight="bold" text-decoration="none" x="998.062744140625" y="539.5">PendingRequests</text></g></g><g transform="translate(-366,-285) scale(1,1)"><g><path fill="none" stroke="none"/><text fill="#000000" stroke="none" font-family="Arial" font-size="13px" font-style="normal" font-weight="normal" text-decoration="none" x="989" y="572.5">«GET»get()</text></g></g><g transform="translate(-366,-285) scale(1,1)"><path fill="none" stroke="#000000" d="M 852 547 L 983 548" stroke-miterlimit="10"/></g><g transform="translate(-366,-285) scale(1,1)"><g><path fill="none" stroke="none"/><text fill="#000000" stroke="none" font-family="Arial" font-size="13px" font-style="normal" font-weight="normal" text-decoration="none" x="880.36865234375" y="538.5">/{pacienteId}</text></g></g><g transform="translate(-366,-285) scale(1,1)"><g><path fill="none" stroke="none"/><text fill="#000000" stroke="none" font-family="Arial" font-size="13px" font-style="normal" font-weight="normal" text-decoration="none" x="868.5" y="523.5">«ResourcePath»</text></g></g></g></svg>