<svg version="1.1" xmlns="http://www.w3.org/2000/svg" xmlns:xlink="http://www.w3.org/1999/xlink" width="1436" height="725"><defs/><g><g transform="translate(-230,-86) scale(1,1)"><rect fill="#C0C0C0" stroke="none" x="253" y="103" width="154.9833984375" height="162" opacity="0.2"/></g><g transform="translate(-230,-86) scale(1,1)"><rect fill="#ffffff" stroke="none" x="246" y="96" width="154.9833984375" height="162"/></g><g transform="translate(-230,-86) scale(1,1)"><path fill="none" stroke="#000000" d="M 246 96 L 400.9833984375 96 L 400.9833984375 258 L 246 258 L 246 96 Z Z" stroke-miterlimit="10"/></g><g transform="translate(-230,-86) scale(1,1)"><path fill="none" stroke="#000000" d="M 246 121 L 400.9833984375 121" stroke-miterlimit="10"/></g><g transform="translate(-230,-86) scale(1,1)"><path fill="none" stroke="#000000" d="M 246 234 L 400.9833984375 234" stroke-miterlimit="10"/></g><g transform="translate(-230,-86) scale(1,1)"><g><path fill="none" stroke="none"/><text fill="#000000" stroke="none" font-family="Arial" font-size="13px" font-style="normal" font-weight="bold" text-decoration="none" x="301.811279296875" y="115.5">Estudio</text></g></g><g transform="translate(-230,-86) scale(1,1)"><g><path fill="none" stroke="none"/><text fill="#000000" stroke="none" font-family="Arial" font-size="13px" font-style="normal" font-weight="normal" text-decoration="none" x="251" y="138.5">nombre: String</text></g></g><g transform="translate(-230,-86) scale(1,1)"><g><path fill="none" stroke="none"/><text fill="#000000" stroke="none" font-family="Arial" font-size="13px" font-style="normal" font-weight="normal" text-decoration="none" x="251" y="153.5">diseno: String</text></g></g><g transform="translate(-230,-86) scale(1,1)"><g><path fill="none" stroke="none"/><text fill="#000000" stroke="none" font-family="Arial" font-size="13px" font-style="normal" font-weight="normal" text-decoration="none" x="251" y="168.5">ambito: String</text></g></g><g transform="translate(-230,-86) scale(1,1)"><g><path fill="none" stroke="none"/><text fill="#000000" stroke="none" font-family="Arial" font-size="13px" font-style="normal" font-weight="normal" text-decoration="none" x="251" y="183.5">objetivo: String</text></g></g><g transform="translate(-230,-86) scale(1,1)"><g><path fill="none" stroke="none"/><text fill="#000000" stroke="none" font-family="Arial" font-size="13px" font-style="normal" font-weight="normal" text-decoration="none" x="251" y="198.5">sujetos: String</text></g></g><g transform="translate(-230,-86) scale(1,1)"><g><path fill="none" stroke="none"/><text fill="#000000" stroke="none" font-family="Arial" font-size="13px" font-style="normal" font-weight="normal" text-decoration="none" x="251" y="213.5">determinacion: String</text></g></g><g transform="translate(-230,-86) scale(1,1)"><g><path fill="none" stroke="none"/><text fill="#000000" stroke="none" font-family="Arial" font-size="13px" font-style="normal" font-weight="normal" text-decoration="none" x="251" y="228.5">metodo: String</text></g></g><g transform="translate(-230,-86) scale(1,1)"><rect fill="#C0C0C0" stroke="none" x="463" y="367" width="208.7607421875" height="125" opacity="0.2"/></g><g transform="translate(-230,-86) scale(1,1)"><rect fill="#ffffff" stroke="none" x="456" y="360" width="208.7607421875" height="125"/></g><g transform="translate(-230,-86) scale(1,1)"><path fill="none" stroke="#000000" d="M 456 360 L 664.7607421875 360 L 664.7607421875 485 L 456 485 L 456 360 Z Z" stroke-miterlimit="10"/></g><g transform="translate(-230,-86) scale(1,1)"><path fill="none" stroke="#000000" d="M 456 385 L 664.7607421875 385" stroke-miterlimit="10"/></g><g transform="translate(-230,-86) scale(1,1)"><path fill="none" stroke="#000000" d="M 456 453 L 664.7607421875 453" stroke-miterlimit="10"/></g><g transform="translate(-230,-86) scale(1,1)"><g><path fill="none" stroke="none"/><text fill="#000000" stroke="none" font-family="Arial" font-size="13px" font-style="normal" font-weight="bold" text-decoration="none" x="546.65673828125" y="379.5">User</text></g></g><g transform="translate(-230,-86) scale(1,1)"><g><path fill="none" stroke="none"/><text fill="#000000" stroke="none" font-family="Arial" font-size="13px" font-style="normal" font-weight="normal" text-decoration="none" x="461" y="402.5">user: String {unique}</text></g></g><g transform="translate(-230,-86) scale(1,1)"><g><path fill="none" stroke="none"/><text fill="#000000" stroke="none" font-family="Arial" font-size="13px" font-style="normal" font-weight="normal" text-decoration="none" x="461" y="417.5">password: String</text></g></g><g transform="translate(-230,-86) scale(1,1)"><g><path fill="none" stroke="none"/><text fill="#000000" stroke="none" font-family="Arial" font-size="13px" font-style="normal" font-weight="normal" text-decoration="none" x="461" y="432.5">role: Role</text></g></g><g transform="translate(-230,-86) scale(1,1)"><g><path fill="none" stroke="none"/><text fill="#000000" stroke="none" font-family="Arial" font-size="13px" font-style="normal" font-weight="normal" text-decoration="none" x="461" y="447.5">grupo: Grupo</text></g></g><g transform="translate(-230,-86) scale(1,1)"><rect fill="#C0C0C0" stroke="none" x="268" y="311" width="125.34619140625" height="105" opacity="0.2"/></g><g transform="translate(-230,-86) scale(1,1)"><rect fill="#ffffff" stroke="none" x="261" y="304" width="125.34619140625" height="105"/></g><g transform="translate(-230,-86) scale(1,1)"><path fill="none" stroke="#000000" d="M 261 304 L 386.34619140625 304 L 386.34619140625 409 L 261 409 L 261 304 Z Z" stroke-miterlimit="10"/></g><g transform="translate(-230,-86) scale(1,1)"><path fill="none" stroke="#000000" d="M 261 342 L 386.34619140625 342" stroke-miterlimit="10"/></g><g transform="translate(-230,-86) scale(1,1)"><g><path fill="none" stroke="none"/><text fill="#000000" stroke="none" font-family="Arial" font-size="13px" font-style="normal" font-weight="normal" text-decoration="none" x="280.30908203125" y="321.5">«enumeration»</text></g></g><g transform="translate(-230,-86) scale(1,1)"><g><path fill="none" stroke="none"/><text fill="#000000" stroke="none" font-family="Arial" font-size="13px" font-style="normal" font-weight="bold" text-decoration="none" x="310.304931640625" y="336.5">Role</text></g></g><g transform="translate(-230,-86) scale(1,1)"><g><path fill="none" stroke="none"/><text fill="#000000" stroke="none" font-family="Arial" font-size="13px" font-style="normal" font-weight="normal" text-decoration="none" x="266" y="359.5">Médico</text></g></g><g transform="translate(-230,-86) scale(1,1)"><g><path fill="none" stroke="none"/><text fill="#000000" stroke="none" font-family="Arial" font-size="13px" font-style="normal" font-weight="normal" text-decoration="none" x="266" y="374.5">Paciente</text></g></g><g transform="translate(-230,-86) scale(1,1)"><g><path fill="none" stroke="none"/><text fill="#000000" stroke="none" font-family="Arial" font-size="13px" font-style="normal" font-weight="normal" text-decoration="none" x="266" y="389.5">Cuidador</text></g></g><g transform="translate(-230,-86) scale(1,1)"><g><path fill="none" stroke="none"/><text fill="#000000" stroke="none" font-family="Arial" font-size="13px" font-style="normal" font-weight="normal" text-decoration="none" x="266" y="404.5">Administrador</text></g></g><g transform="translate(-230,-86) scale(1,1)"><rect fill="#C0C0C0" stroke="none" x="278" y="423" width="105.8271484375" height="90" opacity="0.2"/></g><g transform="translate(-230,-86) scale(1,1)"><rect fill="#ffffff" stroke="none" x="271" y="416" width="105.8271484375" height="90"/></g><g transform="translate(-230,-86) scale(1,1)"><path fill="none" stroke="#000000" d="M 271 416 L 376.8271484375 416 L 376.8271484375 506 L 271 506 L 271 416 Z Z" stroke-miterlimit="10"/></g><g transform="translate(-230,-86) scale(1,1)"><path fill="none" stroke="#000000" d="M 271 454 L 376.8271484375 454" stroke-miterlimit="10"/></g><g transform="translate(-230,-86) scale(1,1)"><g><path fill="none" stroke="none"/><text fill="#000000" stroke="none" font-family="Arial" font-size="13px" font-style="normal" font-weight="normal" text-decoration="none" x="280.549560546875" y="433.5">«enumeration»</text></g></g><g transform="translate(-230,-86) scale(1,1)"><g><path fill="none" stroke="none"/><text fill="#000000" stroke="none" font-family="Arial" font-size="13px" font-style="normal" font-weight="bold" text-decoration="none" x="305.84814453125" y="448.5">Grupo</text></g></g><g transform="translate(-230,-86) scale(1,1)"><g><path fill="none" stroke="none"/><text fill="#000000" stroke="none" font-family="Arial" font-size="13px" font-style="normal" font-weight="normal" text-decoration="none" x="276" y="471.5">Control</text></g></g><g transform="translate(-230,-86) scale(1,1)"><g><path fill="none" stroke="none"/><text fill="#000000" stroke="none" font-family="Arial" font-size="13px" font-style="normal" font-weight="normal" text-decoration="none" x="276" y="486.5">Experimentación</text></g></g><g transform="translate(-230,-86) scale(1,1)"><g><path fill="none" stroke="none"/><text fill="#000000" stroke="none" font-family="Arial" font-size="13px" font-style="normal" font-weight="normal" text-decoration="none" x="276" y="501.5">Administración</text></g></g><g transform="translate(-230,-86) scale(1,1)"><rect fill="#C0C0C0" stroke="none" x="247" y="615" width="166.904296875" height="87" opacity="0.2"/></g><g transform="translate(-230,-86) scale(1,1)"><rect fill="#ffffff" stroke="none" x="240" y="608" width="166.904296875" height="87"/></g><g transform="translate(-230,-86) scale(1,1)"><path fill="none" stroke="#000000" d="M 240 608 L 406.904296875 608 L 406.904296875 695 L 240 695 L 240 608 Z Z" stroke-miterlimit="10"/></g><g transform="translate(-230,-86) scale(1,1)"><path fill="none" stroke="#000000" d="M 240 633 L 406.904296875 633" stroke-miterlimit="10"/></g><g transform="translate(-230,-86) scale(1,1)"><path fill="none" stroke="#000000" d="M 240 686 L 406.904296875 686" stroke-miterlimit="10"/></g><g transform="translate(-230,-86) scale(1,1)"><g><path fill="none" stroke="none"/><text fill="#000000" stroke="none" font-family="Arial" font-size="13px" font-style="normal" font-weight="bold" text-decoration="none" x="269.265380859375" y="627.5">PeticionFormulario</text></g></g><g transform="translate(-230,-86) scale(1,1)"><g><path fill="none" stroke="none"/><text fill="#000000" stroke="none" font-family="Arial" font-size="13px" font-style="normal" font-weight="normal" text-decoration="none" x="245" y="650.5">formulario: String</text></g></g><g transform="translate(-230,-86) scale(1,1)"><g><path fill="none" stroke="none"/><text fill="#000000" stroke="none" font-family="Arial" font-size="13px" font-style="normal" font-weight="normal" text-decoration="none" x="245" y="665.5">fecha: Date</text></g></g><g transform="translate(-230,-86) scale(1,1)"><g><path fill="none" stroke="none"/><text fill="#000000" stroke="none" font-family="Arial" font-size="13px" font-style="normal" font-weight="normal" text-decoration="none" x="245" y="680.5">visita: Number</text></g></g><g transform="translate(-230,-86) scale(1,1)"><path fill="none" stroke="#000000" d="M 336 608 L 336 568 L 568 568 L 568 485" stroke-miterlimit="10"/></g><g transform="translate(-230,-86) scale(1,1)"><path fill="#000000" stroke="none" d="M 572.209517756016 495.16267485762415 L 568 485 L 563.790482243984 495.16267485762415 L 568 507"/></g><g transform="translate(-230,-86) scale(1,1)"><path fill="none" stroke="#000000" d="M 572.209517756016 495.16267485762415 L 568 485 L 563.790482243984 495.16267485762415 L 568 507 L 572.209517756016 495.16267485762415" stroke-miterlimit="10"/></g><g transform="translate(-230,-86) scale(1,1)"><g><path fill="none" stroke="none"/><text fill="#000000" stroke="none" font-family="Arial" font-size="13px" font-style="normal" font-weight="normal" text-decoration="none" x="266.2958984375" y="588.5">formularios</text></g></g><g transform="translate(-230,-86) scale(1,1)"><g><path fill="none" stroke="none"/><text fill="#000000" stroke="none" font-family="Arial" font-size="13px" font-style="normal" font-weight="normal" text-decoration="none" x="337.74365234375" y="592.5">0..*</text></g></g><g transform="translate(-230,-86) scale(1,1)"><g><path fill="none" stroke="none"/><text fill="#000000" stroke="none" font-family="Arial" font-size="13px" font-style="normal" font-weight="normal" text-decoration="none" x="575.885009765625" y="512.5">1</text></g></g><g transform="translate(-230,-86) scale(1,1)"><path fill="none" stroke="#000000" d="M 568 360 L 568 168 L 401 168" stroke-miterlimit="10"/></g><g transform="translate(-230,-86) scale(1,1)"><path fill="none" stroke="#000000" d="M 411.16267485762415 163.790482243984 L 401 168 L 411.16267485762415 172.209517756016" stroke-miterlimit="10"/></g><g transform="translate(-230,-86) scale(1,1)"><g><path fill="none" stroke="none"/><text fill="#000000" stroke="none" font-family="Arial" font-size="13px" font-style="normal" font-weight="normal" text-decoration="none" x="569.74365234375" y="344.5">0..*</text></g></g><g transform="translate(-230,-86) scale(1,1)"><g><path fill="none" stroke="none"/><text fill="#000000" stroke="none" font-family="Arial" font-size="13px" font-style="normal" font-weight="normal" text-decoration="none" x="418.2958984375" y="187.5">estudio</text></g></g><g transform="translate(-230,-86) scale(1,1)"><g><path fill="none" stroke="none"/><text fill="#000000" stroke="none" font-family="Arial" font-size="13px" font-style="normal" font-weight="normal" text-decoration="none" x="417.885009765625" y="161.5">1</text></g></g><g transform="translate(-230,-86) scale(1,1)"><rect fill="#C0C0C0" stroke="none" x="1103" y="367" width="153.18701171875" height="87" opacity="0.2"/></g><g transform="translate(-230,-86) scale(1,1)"><rect fill="#ffffff" stroke="none" x="1096" y="360" width="153.18701171875" height="87"/></g><g transform="translate(-230,-86) scale(1,1)"><path fill="none" stroke="#000000" d="M 1096 360 L 1249.18701171875 360 L 1249.18701171875 447 L 1096 447 L 1096 360 Z Z" stroke-miterlimit="10"/></g><g transform="translate(-230,-86) scale(1,1)"><path fill="none" stroke="#000000" d="M 1096 385 L 1249.18701171875 385" stroke-miterlimit="10"/></g><g transform="translate(-230,-86) scale(1,1)"><path fill="none" stroke="#000000" d="M 1096 438 L 1249.18701171875 438" stroke-miterlimit="10"/></g><g transform="translate(-230,-86) scale(1,1)"><g><path fill="none" stroke="none"/><text fill="#000000" stroke="none" font-family="Arial" font-size="13px" font-style="italic" font-weight="bold" text-decoration="none" x="1141.53125" y="379.5">Formulario</text></g></g><g transform="translate(-230,-86) scale(1,1)"><g><path fill="none" stroke="none"/><text fill="#000000" stroke="none" font-family="Arial" font-size="13px" font-style="normal" font-weight="normal" text-decoration="none" x="1101" y="402.5">nombre: String</text></g></g><g transform="translate(-230,-86) scale(1,1)"><g><path fill="none" stroke="none"/><text fill="#000000" stroke="none" font-family="Arial" font-size="13px" font-style="normal" font-weight="normal" text-decoration="none" x="1101" y="417.5">visita: Number</text></g></g><g transform="translate(-230,-86) scale(1,1)"><g><path fill="none" stroke="none"/><text fill="#000000" stroke="none" font-family="Arial" font-size="13px" font-style="normal" font-weight="normal" text-decoration="none" x="1101" y="432.5">fecha: Date</text></g></g><g transform="translate(-230,-86) scale(1,1)"><path fill="none" stroke="#000000" d="M 407 651 L 624 651 L 624 485" stroke-miterlimit="10"/></g><g transform="translate(-230,-86) scale(1,1)"><path fill="none" stroke="#000000" d="M 628.209517756016 495.16267485762415 L 624 485 L 619.790482243984 495.16267485762415" stroke-miterlimit="10"/></g><g transform="translate(-230,-86) scale(1,1)"><g><path fill="none" stroke="none"/><text fill="#000000" stroke="none" font-family="Arial" font-size="13px" font-style="normal" font-weight="normal" text-decoration="none" x="417.74365234375" y="669.5">0..*</text></g></g><g transform="translate(-230,-86) scale(1,1)"><g><path fill="none" stroke="none"/><text fill="#000000" stroke="none" font-family="Arial" font-size="13px" font-style="normal" font-weight="normal" text-decoration="none" x="631.5" y="530.5">paciente</text></g></g><g transform="translate(-230,-86) scale(1,1)"><g><path fill="none" stroke="none"/><text fill="#000000" stroke="none" font-family="Arial" font-size="13px" font-style="normal" font-weight="normal" text-decoration="none" x="631.885009765625" y="512.5">1</text></g></g><g transform="translate(-230,-86) scale(1,1)"><path fill="none" stroke="#000000" d="M 1096 384 L 665 384" stroke-miterlimit="10"/></g><g transform="translate(-230,-86) scale(1,1)"><path fill="none" stroke="#000000" d="M 675.1626748576241 379.790482243984 L 665 384 L 675.1626748576241 388.209517756016" stroke-miterlimit="10"/></g><g transform="translate(-230,-86) scale(1,1)"><g><path fill="none" stroke="none"/><text fill="#000000" stroke="none" font-family="Arial" font-size="13px" font-style="normal" font-weight="normal" text-decoration="none" x="1063.74365234375" y="377.5">0..*</text></g></g><g transform="translate(-230,-86) scale(1,1)"><g><path fill="none" stroke="none"/><text fill="#000000" stroke="none" font-family="Arial" font-size="13px" font-style="normal" font-weight="normal" text-decoration="none" x="668.5" y="404.5">usuario</text></g></g><g transform="translate(-230,-86) scale(1,1)"><g><path fill="none" stroke="none"/><text fill="#000000" stroke="none" font-family="Arial" font-size="13px" font-style="normal" font-weight="normal" text-decoration="none" x="682.641357421875" y="377.5">1</text></g></g><g transform="translate(-230,-86) scale(1,1)"><path fill="none" stroke="#000000" d="M 1096 432 L 665 432" stroke-miterlimit="10"/></g><g transform="translate(-230,-86) scale(1,1)"><path fill="none" stroke="#000000" d="M 675.1626748576241 427.790482243984 L 665 432 L 675.1626748576241 436.209517756016" stroke-miterlimit="10"/></g><g transform="translate(-230,-86) scale(1,1)"><g><path fill="none" stroke="none"/><text fill="#000000" stroke="none" font-family="Arial" font-size="13px" font-style="normal" font-weight="normal" text-decoration="none" x="1063.74365234375" y="425.5">0..*</text></g></g><g transform="translate(-230,-86) scale(1,1)"><g><path fill="none" stroke="none"/><text fill="#000000" stroke="none" font-family="Arial" font-size="13px" font-style="normal" font-weight="normal" text-decoration="none" x="665.5" y="452.5">paciente</text></g></g><g transform="translate(-230,-86) scale(1,1)"><g><path fill="none" stroke="none"/><text fill="#000000" stroke="none" font-family="Arial" font-size="13px" font-style="normal" font-weight="normal" text-decoration="none" x="681.885009765625" y="425.5">1</text></g></g><g transform="translate(-230,-86) scale(1,1)"><rect fill="#C0C0C0" stroke="none" x="759" y="639" width="235.89697265625" height="72" opacity="0.2"/></g><g transform="translate(-230,-86) scale(1,1)"><rect fill="#ffffff" stroke="none" x="752" y="632" width="235.89697265625" height="72"/></g><g transform="translate(-230,-86) scale(1,1)"><path fill="none" stroke="#000000" d="M 752 632 L 987.89697265625 632 L 987.89697265625 704 L 752 704 L 752 632 Z Z" stroke-miterlimit="10"/></g><g transform="translate(-230,-86) scale(1,1)"><path fill="none" stroke="#000000" d="M 752 657 L 987.89697265625 657" stroke-miterlimit="10"/></g><g transform="translate(-230,-86) scale(1,1)"><path fill="none" stroke="#000000" d="M 752 695 L 987.89697265625 695" stroke-miterlimit="10"/></g><g transform="translate(-230,-86) scale(1,1)"><g><path fill="none" stroke="none"/><text fill="#000000" stroke="none" font-family="Arial" font-size="13px" font-style="normal" font-weight="bold" text-decoration="none" x="842.856689453125" y="651.5">APASMA</text></g></g><g transform="translate(-230,-86) scale(1,1)"><g><path fill="none" stroke="none"/><text fill="#000000" stroke="none" font-family="Arial" font-size="13px" font-style="normal" font-weight="normal" text-decoration="none" x="757" y="674.5">nombre: String = APASMA {readOnly}</text></g></g><g transform="translate(-230,-86) scale(1,1)"><g><path fill="none" stroke="none"/><text fill="#000000" stroke="none" font-family="Arial" font-size="13px" font-style="normal" font-weight="normal" text-decoration="none" x="757" y="689.5">respuestas[0..*]</text></g></g><g transform="translate(-230,-86) scale(1,1)"><path fill="none" stroke="#000000" d="M 845 632 L 845 560 L 1152 560 L 1152 447" stroke-miterlimit="10"/></g><g transform="translate(-230,-86) scale(1,1)"><path fill="#FFFFFF" stroke="none" d="M 1160.419035512032 467.3253497152483 L 1152 447 L 1143.580964487968 467.3253497152483"/></g><g transform="translate(-230,-86) scale(1,1)"><path fill="none" stroke="#000000" d="M 1160.419035512032 467.3253497152483 L 1152 447 L 1143.580964487968 467.3253497152483 L 1160.419035512032 467.3253497152483" stroke-miterlimit="10"/></g><g transform="translate(-230,-86) scale(1,1)"><rect fill="#C0C0C0" stroke="none" x="1039" y="639" width="235.89697265625" height="72" opacity="0.2"/></g><g transform="translate(-230,-86) scale(1,1)"><rect fill="#ffffff" stroke="none" x="1032" y="632" width="235.89697265625" height="72"/></g><g transform="translate(-230,-86) scale(1,1)"><path fill="none" stroke="#000000" d="M 1032 632 L 1267.89697265625 632 L 1267.89697265625 704 L 1032 704 L 1032 632 Z Z" stroke-miterlimit="10"/></g><g transform="translate(-230,-86) scale(1,1)"><path fill="none" stroke="#000000" d="M 1032 657 L 1267.89697265625 657" stroke-miterlimit="10"/></g><g transform="translate(-230,-86) scale(1,1)"><path fill="none" stroke="#000000" d="M 1032 695 L 1267.89697265625 695" stroke-miterlimit="10"/></g><g transform="translate(-230,-86) scale(1,1)"><g><path fill="none" stroke="none"/><text fill="#000000" stroke="none" font-family="Arial" font-size="13px" font-style="normal" font-weight="bold" text-decoration="none" x="1122.856689453125" y="651.5">PACQLQ</text></g></g><g transform="translate(-230,-86) scale(1,1)"><g><path fill="none" stroke="none"/><text fill="#000000" stroke="none" font-family="Arial" font-size="13px" font-style="normal" font-weight="normal" text-decoration="none" x="1037" y="674.5">nombre: String = PAQLQS {readOnly}</text></g></g><g transform="translate(-230,-86) scale(1,1)"><g><path fill="none" stroke="none"/><text fill="#000000" stroke="none" font-family="Arial" font-size="13px" font-style="normal" font-weight="normal" text-decoration="none" x="1037" y="689.5">respuestas[0..*]</text></g></g><g transform="translate(-230,-86) scale(1,1)"><rect fill="#C0C0C0" stroke="none" x="1319" y="639" width="235.89697265625" height="72" opacity="0.2"/></g><g transform="translate(-230,-86) scale(1,1)"><rect fill="#ffffff" stroke="none" x="1312" y="632" width="235.89697265625" height="72"/></g><g transform="translate(-230,-86) scale(1,1)"><path fill="none" stroke="#000000" d="M 1312 632 L 1547.89697265625 632 L 1547.89697265625 704 L 1312 704 L 1312 632 Z Z" stroke-miterlimit="10"/></g><g transform="translate(-230,-86) scale(1,1)"><path fill="none" stroke="#000000" d="M 1312 657 L 1547.89697265625 657" stroke-miterlimit="10"/></g><g transform="translate(-230,-86) scale(1,1)"><path fill="none" stroke="#000000" d="M 1312 695 L 1547.89697265625 695" stroke-miterlimit="10"/></g><g transform="translate(-230,-86) scale(1,1)"><g><path fill="none" stroke="none"/><text fill="#000000" stroke="none" font-family="Arial" font-size="13px" font-style="normal" font-weight="bold" text-decoration="none" x="1403.21533203125" y="651.5">PAQLQS</text></g></g><g transform="translate(-230,-86) scale(1,1)"><g><path fill="none" stroke="none"/><text fill="#000000" stroke="none" font-family="Arial" font-size="13px" font-style="normal" font-weight="normal" text-decoration="none" x="1317" y="674.5">nombre: String = PAQLQS {readOnly}</text></g></g><g transform="translate(-230,-86) scale(1,1)"><g><path fill="none" stroke="none"/><text fill="#000000" stroke="none" font-family="Arial" font-size="13px" font-style="normal" font-weight="normal" text-decoration="none" x="1317" y="689.5">respuestas[0..*]</text></g></g><g transform="translate(-230,-86) scale(1,1)"><path fill="none" stroke="#000000" d="M 1152 632 L 1152 447" stroke-miterlimit="10"/></g><g transform="translate(-230,-86) scale(1,1)"><path fill="#FFFFFF" stroke="none" d="M 1160.419035512032 467.3253497152483 L 1152 447 L 1143.580964487968 467.3253497152483"/></g><g transform="translate(-230,-86) scale(1,1)"><path fill="none" stroke="#000000" d="M 1160.419035512032 467.3253497152483 L 1152 447 L 1143.580964487968 467.3253497152483 L 1160.419035512032 467.3253497152483" stroke-miterlimit="10"/></g><g transform="translate(-230,-86) scale(1,1)"><path fill="none" stroke="#000000" d="M 1400 632 L 1400 560 L 1153 560 L 1153 447" stroke-miterlimit="10"/></g><g transform="translate(-230,-86) scale(1,1)"><path fill="#FFFFFF" stroke="none" d="M 1161.419035512032 467.3253497152483 L 1153 447 L 1144.580964487968 467.3253497152483"/></g><g transform="translate(-230,-86) scale(1,1)"><path fill="none" stroke="#000000" d="M 1161.419035512032 467.3253497152483 L 1153 447 L 1144.580964487968 467.3253497152483 L 1161.419035512032 467.3253497152483" stroke-miterlimit="10"/></g><g transform="translate(-230,-86) scale(1,1)"><path fill="#ffffff" stroke="none" d="M 1272 344 L 1645 344 L 1655 354 L 1655 455 L 1272 455 L 1272 344"/></g><g transform="translate(-230,-86) scale(1,1)"><path fill="none" stroke="#000000" d="M 1272 344 L 1645 344 L 1655 354 L 1655 455 L 1272 455 L 1272 344 L 1272 344" stroke-miterlimit="10"/></g><g transform="translate(-230,-86) scale(1,1)"><path fill="none" stroke="#000000" d="M 1645 344 L 1645 354 L 1655 354 L 1645 344" stroke-miterlimit="10"/></g><g transform="translate(-230,-86) scale(1,1)"><g><path fill="none" stroke="none"/><text fill="#000000" stroke="none" font-family="Arial" font-size="13px" font-style="normal" font-weight="normal" text-decoration="none" x="1277" y="362">La clase Formularios es una clase abstracta. La idea de</text><text fill="#000000" stroke="none" font-family="Arial" font-size="13px" font-style="normal" font-weight="normal" text-decoration="none" x="1277" y="375">respresentarlo de esta forma, es la de dar a entender que todos</text><text fill="#000000" stroke="none" font-family="Arial" font-size="13px" font-style="normal" font-weight="normal" text-decoration="none" x="1277" y="388">los futuros formularios a crear deben tener al menos los mismos</text><text fill="#000000" stroke="none" font-family="Arial" font-size="13px" font-style="normal" font-weight="normal" text-decoration="none" x="1277" y="401">campos que la clase formularios para que el sistema funcione</text><text fill="#000000" stroke="none" font-family="Arial" font-size="13px" font-style="normal" font-weight="normal" text-decoration="none" x="1277" y="414">correctamente siendo el nombre distinto para cada tipo de</text><text fill="#000000" stroke="none" font-family="Arial" font-size="13px" font-style="normal" font-weight="normal" text-decoration="none" x="1277" y="427">formulario</text></g></g><g transform="translate(-230,-86) scale(1,1)"><path fill="#ffffff" stroke="none" d="M 288 712 L 517 712 L 527 722 L 527 800 L 288 800 L 288 712"/></g><g transform="translate(-230,-86) scale(1,1)"><path fill="none" stroke="#000000" d="M 288 712 L 517 712 L 527 722 L 527 800 L 288 800 L 288 712 L 288 712" stroke-miterlimit="10"/></g><g transform="translate(-230,-86) scale(1,1)"><path fill="none" stroke="#000000" d="M 517 712 L 517 722 L 527 722 L 517 712" stroke-miterlimit="10"/></g><g transform="translate(-230,-86) scale(1,1)"><g><path fill="none" stroke="none"/><text fill="#000000" stroke="none" font-family="Arial" font-size="13px" font-style="normal" font-weight="normal" text-decoration="none" x="293" y="730">formulario es de tipo enumerado, a</text><text fill="#000000" stroke="none" font-family="Arial" font-size="13px" font-style="normal" font-weight="normal" text-decoration="none" x="293" y="743">restringir por los nombres de los</text><text fill="#000000" stroke="none" font-family="Arial" font-size="13px" font-style="normal" font-weight="normal" text-decoration="none" x="293" y="756">formularios que tengamos</text><text fill="#000000" stroke="none" font-family="Arial" font-size="13px" font-style="normal" font-weight="normal" text-decoration="none" x="293" y="769">implementados en el sistema. En este</text><text fill="#000000" stroke="none" font-family="Arial" font-size="13px" font-style="normal" font-weight="normal" text-decoration="none" x="293" y="782">caso solo admitiría los valores</text><text fill="#000000" stroke="none" font-family="Arial" font-size="13px" font-style="normal" font-weight="normal" text-decoration="none" x="293" y="795">"APASMA","PACQLQ" y "PAQLQS"</text></g></g></g></svg>