<svg version="1.1" xmlns="http://www.w3.org/2000/svg" xmlns:xlink="http://www.w3.org/1999/xlink" width="1146" height="596"><defs/><g><g transform="translate(-16,10) scale(1,1)"><path fill="none" stroke="#000000" d="M 72 0 L 1152 0 L 1152 576 L 72 576 L 72 0" stroke-miterlimit="10"/></g><g transform="translate(-16,10) scale(1,1)"><path fill="#ffffff" stroke="none" d="M 72 0 L 72 22 L 371.97509765625 22 L 382.97509765625 11 L 382.97509765625 0 L 72 0"/></g><g transform="translate(-16,10) scale(1,1)"><path fill="none" stroke="#000000" d="M 72 0 L 72 22 L 371.97509765625 22 L 382.97509765625 11 L 382.97509765625 0 L 72 0 L 72 0" stroke-miterlimit="10"/></g><g transform="translate(-16,10) scale(1,1)"><g><path fill="none" stroke="none"/><text fill="#000000" stroke="none" font-family="Arial" font-size="13px" font-style="normal" font-weight="normal" text-decoration="none" x="142.97900390625" y="17.5">Diagrama de secuencia - Iniciar sesión</text></g></g><g transform="translate(-16,10) scale(1,1)"><g><path fill="none" stroke="none"/><text fill="#000000" stroke="none" font-family="Arial" font-size="13px" font-style="normal" font-weight="bold" text-decoration="none" x="77" y="17.5">interaction</text></g></g><g transform="translate(-16,10) scale(1,1)"><rect fill="#ffffff" stroke="none" x="26" y="117.5" width="14" height="14"/></g><g transform="translate(-16,10) scale(1,1)"><path fill="none" stroke="#000000" d="M 26 117.5 L 40 117.5 L 40 131.5 L 26 131.5 L 26 117.5 Z Z" stroke-miterlimit="10"/></g><g transform="translate(-16,10) scale(1,1)"><path fill="#ffffff" stroke="none" d="M 203.9781356534091 47.3 C 203.9781356534091 43.82060576 206.8565373755909 41 210.4072265625 41 C 213.9579157494091 41 216.83631747159092 43.82060576 216.83631747159092 47.3 C 216.83631747159092 50.779394239999995 213.9579157494091 53.6 210.4072265625 53.6 C 206.8565373755909 53.6 203.9781356534091 50.779394239999995 203.9781356534091 47.3 Z"/></g><g transform="translate(-16,10) scale(1,1)"><path fill="none" stroke="#000000" d="M 203.9781356534091 47.3 C 203.9781356534091 43.82060576 206.8565373755909 41 210.4072265625 41 C 213.9579157494091 41 216.83631747159092 43.82060576 216.83631747159092 47.3 C 216.83631747159092 50.779394239999995 213.9579157494091 53.6 210.4072265625 53.6 C 206.8565373755909 53.6 203.9781356534091 50.779394239999995 203.9781356534091 47.3 Z" stroke-miterlimit="10"/></g><g transform="translate(-16,10) scale(1,1)"><path fill="none" stroke="#000000" d="M 210.4072265625 53.6 L 210.4072265625 66.4" stroke-miterlimit="10"/></g><g transform="translate(-16,10) scale(1,1)"><path fill="none" stroke="#000000" d="M 203.5999538352273 58.4 L 217.21449928977273 58.4" stroke-miterlimit="10"/></g><g transform="translate(-16,10) scale(1,1)"><path fill="none" stroke="#000000" d="M 210.4072265625 66.4 L 200.95268110795456 79" stroke-miterlimit="10"/></g><g transform="translate(-16,10) scale(1,1)"><path fill="none" stroke="#000000" d="M 210.4072265625 66.4 L 219.86177201704547 79" stroke-miterlimit="10"/></g><g transform="translate(-16,10) scale(1,1)"><g><path fill="none" stroke="none"/><text fill="#000000" stroke="none" font-family="Arial" font-size="13px" font-style="normal" font-weight="bold" text-decoration="none" x="148.279541015625" y="99.5">: Usuario Formularios</text></g></g><g transform="translate(-16,10) scale(1,1)"><path fill="none" stroke="#000000" d="M 211.5 105 L 211.5 528" stroke-miterlimit="10" stroke-dasharray="3"/></g><g transform="translate(-16,10) scale(1,1)"><rect fill="#C0C0C0" stroke="none" x="375" y="47" width="109.29541015625" height="39" opacity="0.2"/></g><g transform="translate(-16,10) scale(1,1)"><rect fill="#ffffff" stroke="none" x="368" y="40" width="109.29541015625" height="39"/></g><g transform="translate(-16,10) scale(1,1)"><path fill="none" stroke="#000000" d="M 368 40 L 477.29541015625 40 L 477.29541015625 79 L 368 79 L 368 40 Z Z" stroke-miterlimit="10"/></g><g transform="translate(-16,10) scale(1,1)"><g><path fill="none" stroke="none"/><text fill="#000000" stroke="none" font-family="Arial" font-size="13px" font-style="normal" font-weight="bold" text-decoration="none" x="379.667724609375" y="59.5">Servidor HTTP</text></g></g><g transform="translate(-16,10) scale(1,1)"><path fill="none" stroke="#000000" d="M 423.5 80 L 423.5 536" stroke-miterlimit="10" stroke-dasharray="3"/></g><g transform="translate(-16,10) scale(1,1)"><rect fill="#C0C0C0" stroke="none" x="623" y="47" width="74.630859375" height="39" opacity="0.2"/></g><g transform="translate(-16,10) scale(1,1)"><rect fill="#ffffff" stroke="none" x="616" y="40" width="74.630859375" height="39"/></g><g transform="translate(-16,10) scale(1,1)"><path fill="none" stroke="#000000" d="M 616 40 L 690.630859375 40 L 690.630859375 79 L 616 79 L 616 40 Z Z" stroke-miterlimit="10"/></g><g transform="translate(-16,10) scale(1,1)"><g><path fill="none" stroke="none"/><text fill="#000000" stroke="none" font-family="Arial" font-size="13px" font-style="normal" font-weight="bold" text-decoration="none" x="627.66455078125" y="59.5">Passport</text></g></g><g transform="translate(-16,10) scale(1,1)"><path fill="none" stroke="#000000" d="M 654.5 80 L 654.5 550" stroke-miterlimit="10" stroke-dasharray="3"/></g><g transform="translate(-16,10) scale(1,1)"><path fill="none" stroke="#000000" d="M 128 288 L 1104 288 L 1104 519 L 128 519 L 128 288" stroke-miterlimit="10"/></g><g transform="translate(-16,10) scale(1,1)"><path fill="#ffffff" stroke="none" d="M 128 288 L 128 310 L 193.8798828125 310 L 204.8798828125 299 L 204.8798828125 288 L 128 288"/></g><g transform="translate(-16,10) scale(1,1)"><path fill="none" stroke="#000000" d="M 128 288 L 128 310 L 193.8798828125 310 L 204.8798828125 299 L 204.8798828125 288 L 128 288 L 128 288" stroke-miterlimit="10"/></g><g transform="translate(-16,10) scale(1,1)"><g><path fill="none" stroke="none"/><text fill="#000000" stroke="none" font-family="Arial" font-size="13px" font-style="normal" font-weight="normal" text-decoration="none" x="157.07177734375" y="305.5">Login</text></g></g><g transform="translate(-16,10) scale(1,1)"><g><path fill="none" stroke="none"/><text fill="#000000" stroke="none" font-family="Arial" font-size="13px" font-style="normal" font-weight="bold" text-decoration="none" x="133" y="305.5">opt</text></g></g><g transform="translate(-16,10) scale(1,1)"><g><path fill="none" stroke="none"/><text fill="#000000" stroke="none" font-family="Arial" font-size="13px" font-style="normal" font-weight="normal" text-decoration="none" x="147.5" y="338.5">[Correcto]</text></g></g><g transform="translate(-16,10) scale(1,1)"><path fill="none" stroke="#000000" d="M 128 401 L 1104 401" stroke-miterlimit="10" stroke-dasharray="10,3"/></g><g transform="translate(-16,10) scale(1,1)"><g><path fill="none" stroke="none"/><text fill="#000000" stroke="none" font-family="Arial" font-size="13px" font-style="normal" font-weight="normal" text-decoration="none" x="147.5" y="428.5">[Incorrecto]</text></g></g><g transform="translate(-16,10) scale(1,1)"><rect fill="#C0C0C0" stroke="none" x="751" y="47" width="237.18798828125" height="39" opacity="0.2"/></g><g transform="translate(-16,10) scale(1,1)"><rect fill="#ffffff" stroke="none" x="744" y="40" width="237.18798828125" height="39"/></g><g transform="translate(-16,10) scale(1,1)"><path fill="none" stroke="#000000" d="M 744 40 L 981.18798828125 40 L 981.18798828125 79 L 744 79 L 744 40 Z Z" stroke-miterlimit="10"/></g><g transform="translate(-16,10) scale(1,1)"><g><path fill="none" stroke="none"/><text fill="#000000" stroke="none" font-family="Arial" font-size="13px" font-style="normal" font-weight="bold" text-decoration="none" x="786.45068359375" y="59.5">: mongoose.model("User")</text></g></g><g transform="translate(-16,10) scale(1,1)"><path fill="none" stroke="#000000" d="M 863.5 80 L 863.5 294" stroke-miterlimit="10" stroke-dasharray="3"/></g><g transform="translate(-16,10) scale(1,1)"><rect fill="#C0C0C0" stroke="none" x="1039" y="47" width="108.53369140625" height="39" opacity="0.2"/></g><g transform="translate(-16,10) scale(1,1)"><rect fill="#ffffff" stroke="none" x="1032" y="40" width="108.53369140625" height="39"/></g><g transform="translate(-16,10) scale(1,1)"><path fill="none" stroke="#000000" d="M 1032 40 L 1140.53369140625 40 L 1140.53369140625 79 L 1032 79 L 1032 40 Z Z" stroke-miterlimit="10"/></g><g transform="translate(-16,10) scale(1,1)"><g><path fill="none" stroke="none"/><text fill="#000000" stroke="none" font-family="Arial" font-size="13px" font-style="normal" font-weight="bold" text-decoration="none" x="1044.715087890625" y="59.5">db : mongoDB</text></g></g><g transform="translate(-16,10) scale(1,1)"><path fill="none" stroke="#000000" d="M 1087.5 80 L 1087.5 274" stroke-miterlimit="10" stroke-dasharray="3"/></g><g transform="translate(-16,10) scale(1,1)"><path fill="none" stroke="#000000" d="M 211 160 L 416 160" stroke-miterlimit="10"/></g><g transform="translate(-16,10) scale(1,1)"><path fill="#000000" stroke="none" d="M 405.83732514237585 164.209517756016 L 416 160 L 405.83732514237585 155.790482243984"/></g><g transform="translate(-16,10) scale(1,1)"><path fill="none" stroke="#000000" d="M 405.83732514237585 164.209517756016 L 416 160 L 405.83732514237585 155.790482243984 L 405.83732514237585 164.209517756016" stroke-miterlimit="10"/></g><g transform="translate(-16,10) scale(1,1)"><g><path fill="none" stroke="none"/><text fill="#000000" stroke="none" font-family="Arial" font-size="13px" font-style="normal" font-weight="normal" text-decoration="none" x="242.53271484375" y="156.5">Introduce usuario y pass</text></g></g><g transform="translate(-16,10) scale(1,1)"><rect fill="#ffffff" stroke="none" x="416" y="160" width="13" height="336"/></g><g transform="translate(-16,10) scale(1,1)"><path fill="none" stroke="#000000" d="M 416 160 L 429 160 L 429 496 L 416 496 L 416 160 Z Z" stroke-miterlimit="10"/></g><g transform="translate(-16,10) scale(1,1)"><path fill="none" stroke="#000000" d="M 429 184 L 647 184" stroke-miterlimit="10"/></g><g transform="translate(-16,10) scale(1,1)"><path fill="#000000" stroke="none" d="M 636.8373251423759 188.209517756016 L 647 184 L 636.8373251423758 179.790482243984"/></g><g transform="translate(-16,10) scale(1,1)"><path fill="none" stroke="#000000" d="M 636.8373251423759 188.209517756016 L 647 184 L 636.8373251423758 179.790482243984 L 636.8373251423759 188.209517756016" stroke-miterlimit="10"/></g><g transform="translate(-16,10) scale(1,1)"><g><path fill="none" stroke="none"/><text fill="#000000" stroke="none" font-family="Arial" font-size="13px" font-style="normal" font-weight="normal" text-decoration="none" x="477.5" y="180.5">login(user,password)</text></g></g><g transform="translate(-16,10) scale(1,1)"><rect fill="#ffffff" stroke="none" x="647" y="184" width="13" height="296"/></g><g transform="translate(-16,10) scale(1,1)"><path fill="none" stroke="#000000" d="M 647 184 L 660 184 L 660 480 L 647 480 L 647 184 Z Z" stroke-miterlimit="10"/></g><g transform="translate(-16,10) scale(1,1)"><path fill="none" stroke="#000000" d="M 660 224 L 856 224" stroke-miterlimit="10"/></g><g transform="translate(-16,10) scale(1,1)"><path fill="#000000" stroke="none" d="M 845.8373251423759 228.209517756016 L 856 224 L 845.8373251423758 219.790482243984"/></g><g transform="translate(-16,10) scale(1,1)"><path fill="none" stroke="#000000" d="M 845.8373251423759 228.209517756016 L 856 224 L 845.8373251423758 219.790482243984 L 845.8373251423759 228.209517756016" stroke-miterlimit="10"/></g><g transform="translate(-16,10) scale(1,1)"><g><path fill="none" stroke="none"/><text fill="#000000" stroke="none" font-family="Arial" font-size="13px" font-style="normal" font-weight="normal" text-decoration="none" x="718.5" y="220.5">findOne(user)</text></g></g><g transform="translate(-16,10) scale(1,1)"><rect fill="#ffffff" stroke="none" x="856" y="224" width="13" height="56"/></g><g transform="translate(-16,10) scale(1,1)"><path fill="none" stroke="#000000" d="M 856 224 L 869 224 L 869 280 L 856 280 L 856 224 Z Z" stroke-miterlimit="10"/></g><g transform="translate(-16,10) scale(1,1)"><path fill="none" stroke="#000000" d="M 869 232 L 1080 232" stroke-miterlimit="10"/></g><g transform="translate(-16,10) scale(1,1)"><path fill="#000000" stroke="none" d="M 1069.837325142376 236.209517756016 L 1080 232 L 1069.837325142376 227.790482243984"/></g><g transform="translate(-16,10) scale(1,1)"><path fill="none" stroke="#000000" d="M 1069.837325142376 236.209517756016 L 1080 232 L 1069.837325142376 227.790482243984 L 1069.837325142376 236.209517756016" stroke-miterlimit="10"/></g><g transform="translate(-16,10) scale(1,1)"><g><path fill="none" stroke="none"/><text fill="#000000" stroke="none" font-family="Arial" font-size="13px" font-style="normal" font-weight="normal" text-decoration="none" x="934.5" y="228.5">findOne(user)</text></g></g><g transform="translate(-16,10) scale(1,1)"><rect fill="#ffffff" stroke="none" x="1080" y="232" width="13" height="28"/></g><g transform="translate(-16,10) scale(1,1)"><path fill="none" stroke="#000000" d="M 1080 232 L 1093 232 L 1093 260 L 1080 260 L 1080 232 Z Z" stroke-miterlimit="10"/></g><g transform="translate(-16,10) scale(1,1)"><path fill="none" stroke="#000000" d="M 1080 256 L 869 256" stroke-miterlimit="10" stroke-dasharray="3"/></g><g transform="translate(-16,10) scale(1,1)"><path fill="none" stroke="#000000" d="M 879.1626748576241 251.790482243984 L 869 256 L 879.1626748576241 260.209517756016" stroke-miterlimit="10"/></g><g transform="translate(-16,10) scale(1,1)"><path fill="none" stroke="#000000" d="M 856 272 L 660 272" stroke-miterlimit="10" stroke-dasharray="3"/></g><g transform="translate(-16,10) scale(1,1)"><path fill="none" stroke="#000000" d="M 670.1626748576241 267.790482243984 L 660 272 L 670.1626748576241 276.209517756016" stroke-miterlimit="10"/></g><g transform="translate(-16,10) scale(1,1)"><path fill="none" stroke="#000000" d="M 647 321 L 429 321" stroke-miterlimit="10" stroke-dasharray="3"/></g><g transform="translate(-16,10) scale(1,1)"><path fill="none" stroke="#000000" d="M 439.16267485762415 316.790482243984 L 429 321 L 439.16267485762415 325.209517756016" stroke-miterlimit="10"/></g><g transform="translate(-16,10) scale(1,1)"><path fill="none" stroke="#000000" d="M 416 340 L 211 340" stroke-miterlimit="10" stroke-dasharray="3"/></g><g transform="translate(-16,10) scale(1,1)"><path fill="none" stroke="#000000" d="M 221.16267485762415 335.790482243984 L 211 340 L 221.16267485762415 344.209517756016" stroke-miterlimit="10"/></g><g transform="translate(-16,10) scale(1,1)"><g><path fill="none" stroke="none"/><text fill="#000000" stroke="none" font-family="Arial" font-size="13px" font-style="normal" font-weight="normal" text-decoration="none" x="247.5" y="356.5">Redirección a "/home"</text></g></g><g transform="translate(-16,10) scale(1,1)"><path fill="none" stroke="#000000" d="M 647 458 L 429 458" stroke-miterlimit="10" stroke-dasharray="3"/></g><g transform="translate(-16,10) scale(1,1)"><path fill="none" stroke="#000000" d="M 439.16267485762415 453.790482243984 L 429 458 L 439.16267485762415 462.209517756016" stroke-miterlimit="10"/></g><g transform="translate(-16,10) scale(1,1)"><path fill="none" stroke="#000000" d="M 416 480 L 211 480" stroke-miterlimit="10" stroke-dasharray="3"/></g><g transform="translate(-16,10) scale(1,1)"><path fill="none" stroke="#000000" d="M 221.16267485762415 475.790482243984 L 211 480 L 221.16267485762415 484.209517756016" stroke-miterlimit="10"/></g><g transform="translate(-16,10) scale(1,1)"><g><path fill="none" stroke="none"/><text fill="#000000" stroke="none" font-family="Arial" font-size="13px" font-style="normal" font-weight="normal" text-decoration="none" x="218.5" y="496.5">Redirección a "/" y muestra error</text></g></g></g></svg>