<svg version="1.1" xmlns="http://www.w3.org/2000/svg" xmlns:xlink="http://www.w3.org/1999/xlink" width="684" height="604"><defs/><g><g transform="translate(-70,-30) scale(1,1)"><path fill="#C0C0C0" stroke="none" d="M 399 57 L 692 57 L 692 238 L 399 238" opacity="0.2"/></g><g transform="translate(-70,-30) scale(1,1)"><path fill="#C0C0C0" stroke="none" d="M 399 57 L 409 47 L 702 47 L 692 57" opacity="0.2"/></g><g transform="translate(-70,-30) scale(1,1)"><path fill="#C0C0C0" stroke="none" d="M 702 47 L 692 57 L 692 238 L 702 228" opacity="0.2"/></g><g transform="translate(-70,-30) scale(1,1)"><path fill="#ffffff" stroke="none" d="M 392 50 L 685 50 L 685 231 L 392 231"/></g><g transform="translate(-70,-30) scale(1,1)"><path fill="#ffffff" stroke="none" d="M 392 50 L 402 40 L 695 40 L 685 50"/></g><g transform="translate(-70,-30) scale(1,1)"><path fill="#ffffff" stroke="none" d="M 695 40 L 685 50 L 685 231 L 695 221"/></g><g transform="translate(-70,-30) scale(1,1)"><path fill="none" stroke="#000000" d="M 392 50 L 685 50 L 685 231 L 392 231 L 392 50" stroke-miterlimit="10"/></g><g transform="translate(-70,-30) scale(1,1)"><path fill="none" stroke="#000000" d="M 392 50 L 402 40 L 695 40 L 685 50 L 392 50" stroke-miterlimit="10"/></g><g transform="translate(-70,-30) scale(1,1)"><path fill="none" stroke="#000000" d="M 695 40 L 685 50 L 685 231 L 695 221 L 695 40" stroke-miterlimit="10"/></g><g transform="translate(-70,-30) scale(1,1)"><g><path fill="none" stroke="none"/><text fill="#000000" stroke="none" font-family="Arial" font-size="13px" font-style="normal" font-weight="bold" text-decoration="none" x="487.3427734375" y="69.5">Servidor Web ISS</text></g></g><g transform="translate(-70,-30) scale(1,1)"><rect fill="#C0C0C0" stroke="none" x="473" y="111" width="157.68359375" height="44" opacity="0.2"/></g><g transform="translate(-70,-30) scale(1,1)"><rect fill="#ffffff" stroke="none" x="466" y="104" width="157.68359375" height="44"/></g><g transform="translate(-70,-30) scale(1,1)"><path fill="none" stroke="#000000" d="M 466 104 L 623.68359375 104 L 623.68359375 148 L 466 148 L 466 104 Z Z" stroke-miterlimit="10"/></g><g transform="translate(-70,-30) scale(1,1)"><rect fill="#ffffff" stroke="none" x="456" y="111" width="20" height="10"/></g><g transform="translate(-70,-30) scale(1,1)"><path fill="none" stroke="#000000" d="M 456 111 L 476 111 L 476 121 L 456 121 L 456 111 Z Z" stroke-miterlimit="10"/></g><g transform="translate(-70,-30) scale(1,1)"><rect fill="#ffffff" stroke="none" x="456" y="131" width="20" height="10"/></g><g transform="translate(-70,-30) scale(1,1)"><path fill="none" stroke="#000000" d="M 456 131 L 476 131 L 476 141 L 456 141 L 456 131 Z Z" stroke-miterlimit="10"/></g><g transform="translate(-70,-30) scale(1,1)"><g><path fill="none" stroke="none"/><text fill="#000000" stroke="none" font-family="Arial" font-size="13px" font-style="normal" font-weight="bold" text-decoration="none" x="497.10546875" y="123.5">EvDiscover-Bizagi</text></g></g><g transform="translate(-70,-30) scale(1,1)"><rect fill="#C0C0C0" stroke="none" x="473" y="175" width="156.28076171875" height="44" opacity="0.2"/></g><g transform="translate(-70,-30) scale(1,1)"><rect fill="#ffffff" stroke="none" x="466" y="168" width="156.28076171875" height="44"/></g><g transform="translate(-70,-30) scale(1,1)"><path fill="none" stroke="#000000" d="M 466 168 L 622.28076171875 168 L 622.28076171875 212 L 466 212 L 466 168 Z Z" stroke-miterlimit="10"/></g><g transform="translate(-70,-30) scale(1,1)"><rect fill="#ffffff" stroke="none" x="456" y="175" width="20" height="10"/></g><g transform="translate(-70,-30) scale(1,1)"><path fill="none" stroke="#000000" d="M 456 175 L 476 175 L 476 185 L 456 185 L 456 175 Z Z" stroke-miterlimit="10"/></g><g transform="translate(-70,-30) scale(1,1)"><rect fill="#ffffff" stroke="none" x="456" y="195" width="20" height="10"/></g><g transform="translate(-70,-30) scale(1,1)"><path fill="none" stroke="#000000" d="M 456 195 L 476 195 L 476 205 L 456 205 L 456 195 Z Z" stroke-miterlimit="10"/></g><g transform="translate(-70,-30) scale(1,1)"><g><path fill="none" stroke="none"/><text fill="#000000" stroke="none" font-family="Arial" font-size="13px" font-style="normal" font-weight="bold" text-decoration="none" x="484.838623046875" y="187.5">Servidor SQL Express</text></g></g><g transform="translate(-70,-30) scale(1,1)"><path fill="#C0C0C0" stroke="none" d="M 359 353 L 740 353 L 740 630 L 359 630" opacity="0.2"/></g><g transform="translate(-70,-30) scale(1,1)"><path fill="#C0C0C0" stroke="none" d="M 359 353 L 369 343 L 750 343 L 740 353" opacity="0.2"/></g><g transform="translate(-70,-30) scale(1,1)"><path fill="#C0C0C0" stroke="none" d="M 750 343 L 740 353 L 740 630 L 750 620" opacity="0.2"/></g><g transform="translate(-70,-30) scale(1,1)"><path fill="#ffffff" stroke="none" d="M 352 346 L 733 346 L 733 623 L 352 623"/></g><g transform="translate(-70,-30) scale(1,1)"><path fill="#ffffff" stroke="none" d="M 352 346 L 362 336 L 743 336 L 733 346"/></g><g transform="translate(-70,-30) scale(1,1)"><path fill="#ffffff" stroke="none" d="M 743 336 L 733 346 L 733 623 L 743 613"/></g><g transform="translate(-70,-30) scale(1,1)"><path fill="none" stroke="#000000" d="M 352 346 L 733 346 L 733 623 L 352 623 L 352 346" stroke-miterlimit="10"/></g><g transform="translate(-70,-30) scale(1,1)"><path fill="none" stroke="#000000" d="M 352 346 L 362 336 L 743 336 L 733 346 L 352 346" stroke-miterlimit="10"/></g><g transform="translate(-70,-30) scale(1,1)"><path fill="none" stroke="#000000" d="M 743 336 L 733 346 L 733 623 L 743 613 L 743 336" stroke-miterlimit="10"/></g><g transform="translate(-70,-30) scale(1,1)"><g><path fill="none" stroke="none"/><text fill="#000000" stroke="none" font-family="Arial" font-size="13px" font-style="normal" font-weight="bold" text-decoration="none" x="447.08056640625" y="365.5">Servidor Web Node.js+MongoDB</text></g></g><g transform="translate(-70,-30) scale(1,1)"><path fill="#C0C0C0" stroke="none" d="M 87 329 L 246.74072265625 329 L 246.74072265625 367 L 87 367" opacity="0.2"/></g><g transform="translate(-70,-30) scale(1,1)"><path fill="#C0C0C0" stroke="none" d="M 87 329 L 97 319 L 256.74072265625 319 L 246.74072265625 329" opacity="0.2"/></g><g transform="translate(-70,-30) scale(1,1)"><path fill="#C0C0C0" stroke="none" d="M 256.74072265625 319 L 246.74072265625 329 L 246.74072265625 367 L 256.74072265625 357" opacity="0.2"/></g><g transform="translate(-70,-30) scale(1,1)"><path fill="#ffffff" stroke="none" d="M 80 322 L 239.74072265625 322 L 239.74072265625 360 L 80 360"/></g><g transform="translate(-70,-30) scale(1,1)"><path fill="#ffffff" stroke="none" d="M 80 322 L 90 312 L 249.74072265625 312 L 239.74072265625 322"/></g><g transform="translate(-70,-30) scale(1,1)"><path fill="#ffffff" stroke="none" d="M 249.74072265625 312 L 239.74072265625 322 L 239.74072265625 360 L 249.74072265625 350"/></g><g transform="translate(-70,-30) scale(1,1)"><path fill="none" stroke="#000000" d="M 80 322 L 239.74072265625 322 L 239.74072265625 360 L 80 360 L 80 322" stroke-miterlimit="10"/></g><g transform="translate(-70,-30) scale(1,1)"><path fill="none" stroke="#000000" d="M 80 322 L 90 312 L 249.74072265625 312 L 239.74072265625 322 L 80 322" stroke-miterlimit="10"/></g><g transform="translate(-70,-30) scale(1,1)"><path fill="none" stroke="#000000" d="M 249.74072265625 312 L 239.74072265625 322 L 239.74072265625 360 L 249.74072265625 350 L 249.74072265625 312" stroke-miterlimit="10"/></g><g transform="translate(-70,-30) scale(1,1)"><g><path fill="none" stroke="none"/><text fill="#000000" stroke="none" font-family="Arial" font-size="13px" font-style="normal" font-weight="bold" text-decoration="none" x="124.96630859375" y="341.5">Cliente Web</text></g></g><g transform="translate(-70,-30) scale(1,1)"><rect fill="#C0C0C0" stroke="none" x="449" y="535" width="172.8544921875" height="44" opacity="0.2"/></g><g transform="translate(-70,-30) scale(1,1)"><rect fill="#ffffff" stroke="none" x="442" y="528" width="172.8544921875" height="44"/></g><g transform="translate(-70,-30) scale(1,1)"><path fill="none" stroke="#000000" d="M 442 528 L 614.8544921875 528 L 614.8544921875 572 L 442 572 L 442 528 Z Z" stroke-miterlimit="10"/></g><g transform="translate(-70,-30) scale(1,1)"><rect fill="#ffffff" stroke="none" x="432" y="535" width="20" height="10"/></g><g transform="translate(-70,-30) scale(1,1)"><path fill="none" stroke="#000000" d="M 432 535 L 452 535 L 452 545 L 432 545 L 432 535 Z Z" stroke-miterlimit="10"/></g><g transform="translate(-70,-30) scale(1,1)"><rect fill="#ffffff" stroke="none" x="432" y="555" width="20" height="10"/></g><g transform="translate(-70,-30) scale(1,1)"><path fill="none" stroke="#000000" d="M 432 555 L 452 555 L 452 565 L 432 565 L 432 555 Z Z" stroke-miterlimit="10"/></g><g transform="translate(-70,-30) scale(1,1)"><g><path fill="none" stroke="none"/><text fill="#000000" stroke="none" font-family="Arial" font-size="13px" font-style="normal" font-weight="bold" text-decoration="none" x="504.523193359375" y="547.5">mongoDB</text></g></g><g transform="translate(-70,-30) scale(1,1)"><rect fill="#C0C0C0" stroke="none" x="449" y="399" width="118.68994140625" height="52" opacity="0.2"/></g><g transform="translate(-70,-30) scale(1,1)"><rect fill="#ffffff" stroke="none" x="442" y="392" width="118.68994140625" height="52"/></g><g transform="translate(-70,-30) scale(1,1)"><path fill="none" stroke="#000000" d="M 442 392 L 560.68994140625 392 L 560.68994140625 444 L 442 444 L 442 392 Z Z" stroke-miterlimit="10"/></g><g transform="translate(-70,-30) scale(1,1)"><rect fill="#ffffff" stroke="none" x="432" y="399" width="20" height="10"/></g><g transform="translate(-70,-30) scale(1,1)"><path fill="none" stroke="#000000" d="M 432 399 L 452 399 L 452 409 L 432 409 L 432 399 Z Z" stroke-miterlimit="10"/></g><g transform="translate(-70,-30) scale(1,1)"><rect fill="#ffffff" stroke="none" x="432" y="419" width="20" height="10"/></g><g transform="translate(-70,-30) scale(1,1)"><path fill="none" stroke="#000000" d="M 432 419 L 452 419 L 452 429 L 432 429 L 432 419 Z Z" stroke-miterlimit="10"/></g><g transform="translate(-70,-30) scale(1,1)"><g><path fill="none" stroke="none"/><text fill="#000000" stroke="none" font-family="Arial" font-size="13px" font-style="normal" font-weight="normal" text-decoration="none" x="477.44091796875" y="409.5">«Service»</text></g></g><g transform="translate(-70,-30) scale(1,1)"><g><path fill="none" stroke="none"/><text fill="#000000" stroke="none" font-family="Arial" font-size="13px" font-style="normal" font-weight="bold" text-decoration="none" x="460.83544921875" y="424.5">EvDiscover-API</text></g></g><g transform="translate(-70,-30) scale(1,1)"><rect fill="#C0C0C0" stroke="none" x="449" y="471" width="164.9326171875" height="44" opacity="0.2"/></g><g transform="translate(-70,-30) scale(1,1)"><rect fill="#ffffff" stroke="none" x="442" y="464" width="164.9326171875" height="44"/></g><g transform="translate(-70,-30) scale(1,1)"><path fill="none" stroke="#000000" d="M 442 464 L 606.9326171875 464 L 606.9326171875 508 L 442 508 L 442 464 Z Z" stroke-miterlimit="10"/></g><g transform="translate(-70,-30) scale(1,1)"><rect fill="#ffffff" stroke="none" x="432" y="471" width="20" height="10"/></g><g transform="translate(-70,-30) scale(1,1)"><path fill="none" stroke="#000000" d="M 432 471 L 452 471 L 452 481 L 432 481 L 432 471 Z Z" stroke-miterlimit="10"/></g><g transform="translate(-70,-30) scale(1,1)"><rect fill="#ffffff" stroke="none" x="432" y="491" width="20" height="10"/></g><g transform="translate(-70,-30) scale(1,1)"><path fill="none" stroke="#000000" d="M 432 491 L 452 491 L 452 501 L 432 501 L 432 491 Z Z" stroke-miterlimit="10"/></g><g transform="translate(-70,-30) scale(1,1)"><g><path fill="none" stroke="none"/><text fill="#000000" stroke="none" font-family="Arial" font-size="13px" font-style="normal" font-weight="bold" text-decoration="none" x="460.84814453125" y="483.5">EvDiscover-Forms Web</text></g></g><g transform="translate(-70,-30) scale(1,1)"><path fill="none" stroke="#000000" d="M 545 233 L 546 335" stroke-miterlimit="10"/></g><g transform="translate(-70,-30) scale(1,1)"><path fill="none" stroke="#000000" d="M 212 311 L 391 217" stroke-miterlimit="10"/></g><g transform="translate(-70,-30) scale(1,1)"><path fill="none" stroke="#000000" d="M 234 362 L 351 406" stroke-miterlimit="10"/></g></g></svg>