<svg version="1.1" xmlns="http://www.w3.org/2000/svg" xmlns:xlink="http://www.w3.org/1999/xlink" width="1615.341796875" height="924"><defs/><g><g transform="translate(10,-22) scale(1,1)"><rect fill="#C0C0C0" stroke="none" x="271" y="295" width="432" height="336" opacity="0.2"/></g><g transform="translate(10,-22) scale(1,1)"><rect fill="#ffffff" stroke="none" x="264" y="288" width="432" height="336"/></g><g transform="translate(10,-22) scale(1,1)"><path fill="none" stroke="#000000" d="M 264 288 L 696 288 L 696 624 L 264 624 L 264 288 Z Z" stroke-miterlimit="10"/></g><g transform="translate(10,-22) scale(1,1)"><g><path fill="none" stroke="none"/><text fill="#000000" stroke="none" font-family="Arial" font-size="13px" font-style="normal" font-weight="bold" text-decoration="none" x="426.552734375" y="307.5">EvDiscover-Forms</text></g></g><g transform="translate(10,-22) scale(1,1)"><rect fill="#C0C0C0" stroke="none" x="895" y="39" width="512" height="904" opacity="0.2"/></g><g transform="translate(10,-22) scale(1,1)"><rect fill="#ffffff" stroke="none" x="888" y="32" width="512" height="904"/></g><g transform="translate(10,-22) scale(1,1)"><path fill="none" stroke="#000000" d="M 888 32 L 1400 32 L 1400 936 L 888 936 L 888 32 Z Z" stroke-miterlimit="10"/></g><g transform="translate(10,-22) scale(1,1)"><g><path fill="none" stroke="none"/><text fill="#000000" stroke="none" font-family="Arial" font-size="13px" font-style="normal" font-weight="bold" text-decoration="none" x="1091.263671875" y="51.5">EvDiscover-Bizagi</text></g></g><g transform="translate(10,-22) scale(1,1)"><rect fill="#C0C0C0" stroke="none" x="911" y="95" width="480" height="208" opacity="0.2"/></g><g transform="translate(10,-22) scale(1,1)"><rect fill="#ffffff" stroke="none" x="904" y="88" width="480" height="208"/></g><g transform="translate(10,-22) scale(1,1)"><path fill="none" stroke="#000000" d="M 904 88 L 1384 88 L 1384 296 L 904 296 L 904 88 Z Z" stroke-miterlimit="10"/></g><g transform="translate(10,-22) scale(1,1)"><g><path fill="none" stroke="none"/><text fill="#000000" stroke="none" font-family="Arial" font-size="13px" font-style="normal" font-weight="bold" text-decoration="none" x="1070.649658203125" y="107.5">Fase de inicio del estudio</text></g></g><g transform="translate(10,-22) scale(1,1)"><rect fill="#C0C0C0" stroke="none" x="911" y="319" width="480" height="456" opacity="0.2"/></g><g transform="translate(10,-22) scale(1,1)"><rect fill="#ffffff" stroke="none" x="904" y="312" width="480" height="456"/></g><g transform="translate(10,-22) scale(1,1)"><path fill="none" stroke="#000000" d="M 904 312 L 1384 312 L 1384 768 L 904 768 L 904 312 Z Z" stroke-miterlimit="10"/></g><g transform="translate(10,-22) scale(1,1)"><g><path fill="none" stroke="none"/><text fill="#000000" stroke="none" font-family="Arial" font-size="13px" font-style="normal" font-weight="bold" text-decoration="none" x="1057.998779296875" y="331.5">Fase de evolución del estudio</text></g></g><g transform="translate(10,-22) scale(1,1)"><rect fill="#C0C0C0" stroke="none" x="911" y="791" width="480" height="144" opacity="0.2"/></g><g transform="translate(10,-22) scale(1,1)"><rect fill="#ffffff" stroke="none" x="904" y="784" width="480" height="144"/></g><g transform="translate(10,-22) scale(1,1)"><path fill="none" stroke="#000000" d="M 904 784 L 1384 784 L 1384 928 L 904 928 L 904 784 Z Z" stroke-miterlimit="10"/></g><g transform="translate(10,-22) scale(1,1)"><g><path fill="none" stroke="none"/><text fill="#000000" stroke="none" font-family="Arial" font-size="13px" font-style="normal" font-weight="bold" text-decoration="none" x="1053.3046875" y="803.5">Fase de finalización del estudio</text></g></g><g transform="translate(10,-22) scale(1,1)"><path fill="#ffffff" stroke="none" d="M 192.97842169744317 372.23 C 192.97842169744317 366.027841696 197.94366466820682 361 204.068603515625 361 C 210.19354236304318 361 215.15878533380683 366.027841696 215.15878533380683 372.23 C 215.15878533380683 378.43215830400004 210.19354236304318 383.46 204.068603515625 383.46 C 197.94366466820682 383.46 192.97842169744317 378.43215830400004 192.97842169744317 372.23 Z"/></g><g transform="translate(10,-22) scale(1,1)"><path fill="none" stroke="#000000" d="M 192.97842169744317 372.23 C 192.97842169744317 366.027841696 197.94366466820682 361 204.068603515625 361 C 210.19354236304318 361 215.15878533380683 366.027841696 215.15878533380683 372.23 C 215.15878533380683 378.43215830400004 210.19354236304318 383.46 204.068603515625 383.46 C 197.94366466820682 383.46 192.97842169744317 378.43215830400004 192.97842169744317 372.23 Z" stroke-miterlimit="10"/></g><g transform="translate(10,-22) scale(1,1)"><path fill="none" stroke="#000000" d="M 204.068603515625 383.46 L 204.068603515625 405.54" stroke-miterlimit="10"/></g><g transform="translate(10,-22) scale(1,1)"><path fill="none" stroke="#000000" d="M 192.32605806107955 391.74 L 215.81114897017045 391.74" stroke-miterlimit="10"/></g><g transform="translate(10,-22) scale(1,1)"><path fill="none" stroke="#000000" d="M 204.068603515625 405.54 L 187.7595126065341 428" stroke-miterlimit="10"/></g><g transform="translate(10,-22) scale(1,1)"><path fill="none" stroke="#000000" d="M 204.068603515625 405.54 L 220.3776944247159 428" stroke-miterlimit="10"/></g><g transform="translate(10,-22) scale(1,1)"><g><path fill="none" stroke="none"/><text fill="#000000" stroke="none" font-family="Arial" font-size="13px" font-style="normal" font-weight="bold" text-decoration="none" x="145.552734375" y="448.5">Usuario Formularios</text></g></g><g transform="translate(10,-22) scale(1,1)"><path fill="#ffffff" stroke="none" d="M 735.8370642755682 340.23 C 735.8370642755682 334.027841696 740.8023072463318 329 746.92724609375 329 C 753.0521849411682 329 758.0174279119318 334.027841696 758.0174279119318 340.23 C 758.0174279119318 346.43215830400004 753.0521849411682 351.46 746.92724609375 351.46 C 740.8023072463318 351.46 735.8370642755682 346.43215830400004 735.8370642755682 340.23 Z"/></g><g transform="translate(10,-22) scale(1,1)"><path fill="none" stroke="#000000" d="M 735.8370642755682 340.23 C 735.8370642755682 334.027841696 740.8023072463318 329 746.92724609375 329 C 753.0521849411682 329 758.0174279119318 334.027841696 758.0174279119318 340.23 C 758.0174279119318 346.43215830400004 753.0521849411682 351.46 746.92724609375 351.46 C 740.8023072463318 351.46 735.8370642755682 346.43215830400004 735.8370642755682 340.23 Z" stroke-miterlimit="10"/></g><g transform="translate(10,-22) scale(1,1)"><path fill="none" stroke="#000000" d="M 746.92724609375 351.46 L 746.92724609375 373.54" stroke-miterlimit="10"/></g><g transform="translate(10,-22) scale(1,1)"><path fill="none" stroke="#000000" d="M 735.1847006392046 359.74 L 758.6697915482954 359.74" stroke-miterlimit="10"/></g><g transform="translate(10,-22) scale(1,1)"><path fill="none" stroke="#000000" d="M 746.92724609375 373.54 L 730.6181551846591 396" stroke-miterlimit="10"/></g><g transform="translate(10,-22) scale(1,1)"><path fill="none" stroke="#000000" d="M 746.92724609375 373.54 L 763.2363370028409 396" stroke-miterlimit="10"/></g><g transform="translate(10,-22) scale(1,1)"><g><path fill="none" stroke="none"/><text fill="#000000" stroke="none" font-family="Arial" font-size="13px" font-style="normal" font-weight="bold" text-decoration="none" x="706.8291015625" y="416.5">Administrador</text></g></g><g transform="translate(10,-22) scale(1,1)"><path fill="#C0C0C0" stroke="none" d="M 339 360 C 339 350.6111584 408.6197136 343 494.5 343 C 580.3802864 343 650 350.6111584 650 360 C 650 369.3888416 580.3802864 377 494.5 377 C 408.6197136 377 339 369.3888416 339 360 Z" opacity="0.2"/></g><g transform="translate(10,-22) scale(1,1)"><path fill="#ffffff" stroke="none" d="M 332 353 C 332 343.6111584 401.6197136 336 487.5 336 C 573.3802864 336 643 343.6111584 643 353 C 643 362.3888416 573.3802864 370 487.5 370 C 401.6197136 370 332 362.3888416 332 353 Z"/></g><g transform="translate(10,-22) scale(1,1)"><path fill="none" stroke="#000000" d="M 332 353 C 332 343.6111584 401.6197136 336 487.5 336 C 573.3802864 336 643 343.6111584 643 353 C 643 362.3888416 573.3802864 370 487.5 370 C 401.6197136 370 332 362.3888416 332 353 Z" stroke-miterlimit="10"/></g><g transform="translate(10,-22) scale(1,1)"><g><path fill="none" stroke="none"/><text fill="#000000" stroke="none" font-family="Arial" font-size="13px" font-style="normal" font-weight="bold" text-decoration="none" x="413.089599609375" y="360">Cumplimentar formularios</text></g></g><g transform="translate(10,-22) scale(1,1)"><path fill="#C0C0C0" stroke="none" d="M 339 544 C 339 534.6111584 408.6197136 527 494.5 527 C 580.3802864 527 650 534.6111584 650 544 C 650 553.3888416 580.3802864 561 494.5 561 C 408.6197136 561 339 553.3888416 339 544 Z" opacity="0.2"/></g><g transform="translate(10,-22) scale(1,1)"><path fill="#ffffff" stroke="none" d="M 332 537 C 332 527.6111584 401.6197136 520 487.5 520 C 573.3802864 520 643 527.6111584 643 537 C 643 546.3888416 573.3802864 554 487.5 554 C 401.6197136 554 332 546.3888416 332 537 Z"/></g><g transform="translate(10,-22) scale(1,1)"><path fill="none" stroke="#000000" d="M 332 537 C 332 527.6111584 401.6197136 520 487.5 520 C 573.3802864 520 643 527.6111584 643 537 C 643 546.3888416 573.3802864 554 487.5 554 C 401.6197136 554 332 546.3888416 332 537 Z" stroke-miterlimit="10"/></g><g transform="translate(10,-22) scale(1,1)"><g><path fill="none" stroke="none"/><text fill="#000000" stroke="none" font-family="Arial" font-size="13px" font-style="normal" font-weight="bold" text-decoration="none" x="434.754150390625" y="544">Extraer resultados</text></g></g><g transform="translate(10,-22) scale(1,1)"><path fill="none" stroke="#000000" d="M 273 394 L 393 371" stroke-miterlimit="10"/></g><g transform="translate(10,-22) scale(1,1)"><path fill="none" stroke="#000000" d="M 740 423 L 728 528 L 644 531" stroke-miterlimit="10"/></g><g transform="translate(10,-22) scale(1,1)"><path fill="#C0C0C0" stroke="none" d="M 983 456 C 983 446.6111584 1052.6197136 439 1138.5 439 C 1224.3802864 439 1294 446.6111584 1294 456 C 1294 465.3888416 1224.3802864 473 1138.5 473 C 1052.6197136 473 983 465.3888416 983 456 Z" opacity="0.2"/></g><g transform="translate(10,-22) scale(1,1)"><path fill="#ffffff" stroke="none" d="M 976 449 C 976 439.6111584 1045.6197136 432 1131.5 432 C 1217.3802864 432 1287 439.6111584 1287 449 C 1287 458.3888416 1217.3802864 466 1131.5 466 C 1045.6197136 466 976 458.3888416 976 449 Z"/></g><g transform="translate(10,-22) scale(1,1)"><path fill="none" stroke="#000000" d="M 976 449 C 976 439.6111584 1045.6197136 432 1131.5 432 C 1217.3802864 432 1287 439.6111584 1287 449 C 1287 458.3888416 1217.3802864 466 1131.5 466 C 1045.6197136 466 976 458.3888416 976 449 Z" stroke-miterlimit="10"/></g><g transform="translate(10,-22) scale(1,1)"><g><path fill="none" stroke="none"/><text fill="#000000" stroke="none" font-family="Arial" font-size="13px" font-style="normal" font-weight="bold" text-decoration="none" x="1070.8037109375" y="456">Controlar incidencias</text></g></g><g transform="translate(10,-22) scale(1,1)"><path fill="#C0C0C0" stroke="none" d="M 991 528 C 991 518.6111584 1060.6197136 511 1146.5 511 C 1232.3802864 511 1302 518.6111584 1302 528 C 1302 537.3888416 1232.3802864 545 1146.5 545 C 1060.6197136 545 991 537.3888416 991 528 Z" opacity="0.2"/></g><g transform="translate(10,-22) scale(1,1)"><path fill="#ffffff" stroke="none" d="M 984 521 C 984 511.6111584 1053.6197136 504 1139.5 504 C 1225.3802864 504 1295 511.6111584 1295 521 C 1295 530.3888416 1225.3802864 538 1139.5 538 C 1053.6197136 538 984 530.3888416 984 521 Z"/></g><g transform="translate(10,-22) scale(1,1)"><path fill="none" stroke="#000000" d="M 984 521 C 984 511.6111584 1053.6197136 504 1139.5 504 C 1225.3802864 504 1295 511.6111584 1295 521 C 1295 530.3888416 1225.3802864 538 1139.5 538 C 1053.6197136 538 984 530.3888416 984 521 Z" stroke-miterlimit="10"/></g><g transform="translate(10,-22) scale(1,1)"><g><path fill="none" stroke="none"/><text fill="#000000" stroke="none" font-family="Arial" font-size="13px" font-style="normal" font-weight="bold" text-decoration="none" x="1081.333251953125" y="528">Realizar notificación</text></g></g><g transform="translate(10,-22) scale(1,1)"><path fill="#C0C0C0" stroke="none" d="M 983 184 C 983 174.6111584 1052.6197136 167 1138.5 167 C 1224.3802864 167 1294 174.6111584 1294 184 C 1294 193.3888416 1224.3802864 201 1138.5 201 C 1052.6197136 201 983 193.3888416 983 184 Z" opacity="0.2"/></g><g transform="translate(10,-22) scale(1,1)"><path fill="#ffffff" stroke="none" d="M 976 177 C 976 167.6111584 1045.6197136 160 1131.5 160 C 1217.3802864 160 1287 167.6111584 1287 177 C 1287 186.3888416 1217.3802864 194 1131.5 194 C 1045.6197136 194 976 186.3888416 976 177 Z"/></g><g transform="translate(10,-22) scale(1,1)"><path fill="none" stroke="#000000" d="M 976 177 C 976 167.6111584 1045.6197136 160 1131.5 160 C 1217.3802864 160 1287 167.6111584 1287 177 C 1287 186.3888416 1217.3802864 194 1131.5 194 C 1045.6197136 194 976 186.3888416 976 177 Z" stroke-miterlimit="10"/></g><g transform="translate(10,-22) scale(1,1)"><g><path fill="none" stroke="none"/><text fill="#000000" stroke="none" font-family="Arial" font-size="13px" font-style="normal" font-weight="bold" text-decoration="none" x="1092.48095703125" y="184">Crear estudio</text></g></g><g transform="translate(10,-22) scale(1,1)"><path fill="#C0C0C0" stroke="none" d="M 983 384 C 983 374.6111584 1052.6197136 367 1138.5 367 C 1224.3802864 367 1294 374.6111584 1294 384 C 1294 393.3888416 1224.3802864 401 1138.5 401 C 1052.6197136 401 983 393.3888416 983 384 Z" opacity="0.2"/></g><g transform="translate(10,-22) scale(1,1)"><path fill="#ffffff" stroke="none" d="M 976 377 C 976 367.6111584 1045.6197136 360 1131.5 360 C 1217.3802864 360 1287 367.6111584 1287 377 C 1287 386.3888416 1217.3802864 394 1131.5 394 C 1045.6197136 394 976 386.3888416 976 377 Z"/></g><g transform="translate(10,-22) scale(1,1)"><path fill="none" stroke="#000000" d="M 976 377 C 976 367.6111584 1045.6197136 360 1131.5 360 C 1217.3802864 360 1287 367.6111584 1287 377 C 1287 386.3888416 1217.3802864 394 1131.5 394 C 1045.6197136 394 976 386.3888416 976 377 Z" stroke-miterlimit="10"/></g><g transform="translate(10,-22) scale(1,1)"><g><path fill="none" stroke="none"/><text fill="#000000" stroke="none" font-family="Arial" font-size="13px" font-style="normal" font-weight="bold" text-decoration="none" x="1035.386962890625" y="384">Controlar la evolución del estudio</text></g></g><g transform="translate(10,-22) scale(1,1)"><path fill="#C0C0C0" stroke="none" d="M 999 872 C 999 862.6111584 1068.6197136 855 1154.5 855 C 1240.3802864 855 1310 862.6111584 1310 872 C 1310 881.3888416 1240.3802864 889 1154.5 889 C 1068.6197136 889 999 881.3888416 999 872 Z" opacity="0.2"/></g><g transform="translate(10,-22) scale(1,1)"><path fill="#ffffff" stroke="none" d="M 992 865 C 992 855.6111584 1061.6197136 848 1147.5 848 C 1233.3802864 848 1303 855.6111584 1303 865 C 1303 874.3888416 1233.3802864 882 1147.5 882 C 1061.6197136 882 992 874.3888416 992 865 Z"/></g><g transform="translate(10,-22) scale(1,1)"><path fill="none" stroke="#000000" d="M 992 865 C 992 855.6111584 1061.6197136 848 1147.5 848 C 1233.3802864 848 1303 855.6111584 1303 865 C 1303 874.3888416 1233.3802864 882 1147.5 882 C 1061.6197136 882 992 874.3888416 992 865 Z" stroke-miterlimit="10"/></g><g transform="translate(10,-22) scale(1,1)"><g><path fill="none" stroke="none"/><text fill="#000000" stroke="none" font-family="Arial" font-size="13px" font-style="normal" font-weight="bold" text-decoration="none" x="1094.02734375" y="872">Concluir el estudio</text></g></g><g transform="translate(10,-22) scale(1,1)"><path fill="#C0C0C0" stroke="none" d="M 983 256 C 983 246.6111584 1052.6197136 239 1138.5 239 C 1224.3802864 239 1294 246.6111584 1294 256 C 1294 265.3888416 1224.3802864 273 1138.5 273 C 1052.6197136 273 983 265.3888416 983 256 Z" opacity="0.2"/></g><g transform="translate(10,-22) scale(1,1)"><path fill="#ffffff" stroke="none" d="M 976 249 C 976 239.6111584 1045.6197136 232 1131.5 232 C 1217.3802864 232 1287 239.6111584 1287 249 C 1287 258.3888416 1217.3802864 266 1131.5 266 C 1045.6197136 266 976 258.3888416 976 249 Z"/></g><g transform="translate(10,-22) scale(1,1)"><path fill="none" stroke="#000000" d="M 976 249 C 976 239.6111584 1045.6197136 232 1131.5 232 C 1217.3802864 232 1287 239.6111584 1287 249 C 1287 258.3888416 1217.3802864 266 1131.5 266 C 1045.6197136 266 976 258.3888416 976 249 Z" stroke-miterlimit="10"/></g><g transform="translate(10,-22) scale(1,1)"><g><path fill="none" stroke="none"/><text fill="#000000" stroke="none" font-family="Arial" font-size="13px" font-style="normal" font-weight="bold" text-decoration="none" x="1079.109619140625" y="256">Establecer grupos</text></g></g><g transform="translate(10,-22) scale(1,1)"><path fill="#C0C0C0" stroke="none" d="M 999 592 C 999 582.6111584 1071.3060048 575 1160.5 575 C 1249.6939952 575 1322 582.6111584 1322 592 C 1322 601.3888416 1249.6939952 609 1160.5 609 C 1071.3060048 609 999 601.3888416 999 592 Z" opacity="0.2"/></g><g transform="translate(10,-22) scale(1,1)"><path fill="#ffffff" stroke="none" d="M 992 585 C 992 575.6111584 1064.3060048 568 1153.5 568 C 1242.6939952 568 1315 575.6111584 1315 585 C 1315 594.3888416 1242.6939952 602 1153.5 602 C 1064.3060048 602 992 594.3888416 992 585 Z"/></g><g transform="translate(10,-22) scale(1,1)"><path fill="none" stroke="#000000" d="M 992 585 C 992 575.6111584 1064.3060048 568 1153.5 568 C 1242.6939952 568 1315 575.6111584 1315 585 C 1315 594.3888416 1242.6939952 602 1153.5 602 C 1064.3060048 602 992 594.3888416 992 585 Z" stroke-miterlimit="10"/></g><g transform="translate(10,-22) scale(1,1)"><g><path fill="none" stroke="none"/><text fill="#000000" stroke="none" font-family="Arial" font-size="13px" font-style="normal" font-weight="bold" text-decoration="none" x="1070.0283203125" y="592">Alta de pacientes/cuidadores</text></g></g><g transform="translate(10,-22) scale(1,1)"><path fill="#C0C0C0" stroke="none" d="M 1007 640 C 1007 630.6111584 1076.6197136 623 1162.5 623 C 1248.3802864 623 1318 630.6111584 1318 640 C 1318 649.3888416 1248.3802864 657 1162.5 657 C 1076.6197136 657 1007 649.3888416 1007 640 Z" opacity="0.2"/></g><g transform="translate(10,-22) scale(1,1)"><path fill="#ffffff" stroke="none" d="M 1000 633 C 1000 623.6111584 1069.6197136 616 1155.5 616 C 1241.3802864 616 1311 623.6111584 1311 633 C 1311 642.3888416 1241.3802864 650 1155.5 650 C 1069.6197136 650 1000 642.3888416 1000 633 Z"/></g><g transform="translate(10,-22) scale(1,1)"><path fill="none" stroke="#000000" d="M 1000 633 C 1000 623.6111584 1069.6197136 616 1155.5 616 C 1241.3802864 616 1311 623.6111584 1311 633 C 1311 642.3888416 1241.3802864 650 1155.5 650 C 1069.6197136 650 1000 642.3888416 1000 633 Z" stroke-miterlimit="10"/></g><g transform="translate(10,-22) scale(1,1)"><g><path fill="none" stroke="none"/><text fill="#000000" stroke="none" font-family="Arial" font-size="13px" font-style="normal" font-weight="bold" text-decoration="none" x="1109.266845703125" y="640">Registrar visitas</text></g></g><g transform="translate(10,-22) scale(1,1)"><path fill="#ffffff" stroke="none" d="M 1518.9161658380683 220.23000000000002 C 1518.9161658380683 214.02784169600002 1523.8814088088318 209 1530.00634765625 209 C 1536.1312865036682 209 1541.0965294744317 214.02784169600002 1541.0965294744317 220.23000000000002 C 1541.0965294744317 226.432158304 1536.1312865036682 231.46 1530.00634765625 231.46 C 1523.8814088088318 231.46 1518.9161658380683 226.432158304 1518.9161658380683 220.23000000000002 Z"/></g><g transform="translate(10,-22) scale(1,1)"><path fill="none" stroke="#000000" d="M 1518.9161658380683 220.23000000000002 C 1518.9161658380683 214.02784169600002 1523.8814088088318 209 1530.00634765625 209 C 1536.1312865036682 209 1541.0965294744317 214.02784169600002 1541.0965294744317 220.23000000000002 C 1541.0965294744317 226.432158304 1536.1312865036682 231.46 1530.00634765625 231.46 C 1523.8814088088318 231.46 1518.9161658380683 226.432158304 1518.9161658380683 220.23000000000002 Z" stroke-miterlimit="10"/></g><g transform="translate(10,-22) scale(1,1)"><path fill="none" stroke="#000000" d="M 1530.00634765625 231.46 L 1530.00634765625 253.54" stroke-miterlimit="10"/></g><g transform="translate(10,-22) scale(1,1)"><path fill="none" stroke="#000000" d="M 1518.2638022017045 239.74 L 1541.7488931107955 239.74" stroke-miterlimit="10"/></g><g transform="translate(10,-22) scale(1,1)"><path fill="none" stroke="#000000" d="M 1530.00634765625 253.54 L 1513.6972567471591 276" stroke-miterlimit="10"/></g><g transform="translate(10,-22) scale(1,1)"><path fill="none" stroke="#000000" d="M 1530.00634765625 253.54 L 1546.3154385653409 276" stroke-miterlimit="10"/></g><g transform="translate(10,-22) scale(1,1)"><g><path fill="none" stroke="none"/><text fill="#000000" stroke="none" font-family="Arial" font-size="13px" font-style="normal" font-weight="bold" text-decoration="none" x="1489.187744140625" y="296.5">Administrativo</text></g></g><g transform="translate(10,-22) scale(1,1)"><path fill="#ffffff" stroke="none" d="M 1538.5807166193183 580.23 C 1538.5807166193183 574.027841696 1543.5459595900818 569 1549.6708984375 569 C 1555.7958372849182 569 1560.7610802556817 574.027841696 1560.7610802556817 580.23 C 1560.7610802556817 586.432158304 1555.7958372849182 591.46 1549.6708984375 591.46 C 1543.5459595900818 591.46 1538.5807166193183 586.432158304 1538.5807166193183 580.23 Z"/></g><g transform="translate(10,-22) scale(1,1)"><path fill="none" stroke="#000000" d="M 1538.5807166193183 580.23 C 1538.5807166193183 574.027841696 1543.5459595900818 569 1549.6708984375 569 C 1555.7958372849182 569 1560.7610802556817 574.027841696 1560.7610802556817 580.23 C 1560.7610802556817 586.432158304 1555.7958372849182 591.46 1549.6708984375 591.46 C 1543.5459595900818 591.46 1538.5807166193183 586.432158304 1538.5807166193183 580.23 Z" stroke-miterlimit="10"/></g><g transform="translate(10,-22) scale(1,1)"><path fill="none" stroke="#000000" d="M 1549.6708984375 591.46 L 1549.6708984375 613.54" stroke-miterlimit="10"/></g><g transform="translate(10,-22) scale(1,1)"><path fill="none" stroke="#000000" d="M 1537.9283529829545 599.74 L 1561.4134438920455 599.74" stroke-miterlimit="10"/></g><g transform="translate(10,-22) scale(1,1)"><path fill="none" stroke="#000000" d="M 1549.6708984375 613.54 L 1533.3618075284091 636" stroke-miterlimit="10"/></g><g transform="translate(10,-22) scale(1,1)"><path fill="none" stroke="#000000" d="M 1549.6708984375 613.54 L 1565.9799893465909 636" stroke-miterlimit="10"/></g><g transform="translate(10,-22) scale(1,1)"><g><path fill="none" stroke="none"/><text fill="#000000" stroke="none" font-family="Arial" font-size="13px" font-style="normal" font-weight="bold" text-decoration="none" x="1528.71728515625" y="656.5">Médico</text></g></g><g transform="translate(10,-22) scale(1,1)"><path fill="none" stroke="#000000" d="M 1312 626 L 1503 617" stroke-miterlimit="10"/></g><g transform="translate(10,-22) scale(1,1)"><path fill="none" stroke="#000000" d="M 1316 597 L 1503 612" stroke-miterlimit="10"/></g><g transform="translate(10,-22) scale(1,1)"><path fill="none" stroke="#000000" d="M 752 423 L 800 816 L 1020 847" stroke-miterlimit="10"/></g><g transform="translate(10,-22) scale(1,1)"><path fill="none" stroke="#000000" d="M 775 327 L 856 192 L 975 186" stroke-miterlimit="10"/></g><g transform="translate(10,-22) scale(1,1)"><path fill="none" stroke="#000000" d="M 808 327 L 848 296 L 1023 267" stroke-miterlimit="10"/></g><g transform="translate(10,-22) scale(1,1)"><path fill="none" stroke="#000000" d="M 823 375 L 975 376" stroke-miterlimit="10"/></g><g transform="translate(10,-22) scale(1,1)"><path fill="none" stroke="#000000" d="M 823 408 L 896 440 L 975 443" stroke-miterlimit="10"/></g><g transform="translate(10,-22) scale(1,1)"><path fill="none" stroke="#000000" d="M 799 423 L 880 496 L 983 506" stroke-miterlimit="10"/></g><g transform="translate(10,-22) scale(1,1)"><path fill="none" stroke="#000000" d="M 1517 303 L 1488 416 L 1288 434" stroke-miterlimit="10"/></g><g transform="translate(10,-22) scale(1,1)"><path fill="none" stroke="#000000" d="M 1522 303 L 1496 464 L 1448 480 L 1275 503" stroke-miterlimit="10"/></g><g transform="translate(10,-22) scale(1,1)"><path fill="none" stroke="#000000" d="M 1479 254 L 1288 251" stroke-miterlimit="10"/></g><g transform="translate(10,-22) scale(1,1)"><path fill="none" stroke="#000000" d="M 1479 212 L 1456 192 L 1288 184" stroke-miterlimit="10"/></g><g transform="translate(10,-22) scale(1,1)"><path fill="#C0C0C0" stroke="none" d="M 999 744 C 999 734.6111584 1071.3060048 727 1160.5 727 C 1249.6939952 727 1322 734.6111584 1322 744 C 1322 753.3888416 1249.6939952 761 1160.5 761 C 1071.3060048 761 999 753.3888416 999 744 Z" opacity="0.2"/></g><g transform="translate(10,-22) scale(1,1)"><path fill="#ffffff" stroke="none" d="M 992 737 C 992 727.6111584 1064.3060048 720 1153.5 720 C 1242.6939952 720 1315 727.6111584 1315 737 C 1315 746.3888416 1242.6939952 754 1153.5 754 C 1064.3060048 754 992 746.3888416 992 737 Z"/></g><g transform="translate(10,-22) scale(1,1)"><path fill="none" stroke="#000000" d="M 992 737 C 992 727.6111584 1064.3060048 720 1153.5 720 C 1242.6939952 720 1315 727.6111584 1315 737 C 1315 746.3888416 1242.6939952 754 1153.5 754 C 1064.3060048 754 992 746.3888416 992 737 Z" stroke-miterlimit="10"/></g><g transform="translate(10,-22) scale(1,1)"><g><path fill="none" stroke="none"/><text fill="#000000" stroke="none" font-family="Arial" font-size="13px" font-style="normal" font-weight="bold" text-decoration="none" x="1052.334228515625" y="744">Añadir médicos al estudio en curso</text></g></g><g transform="translate(10,-22) scale(1,1)"><path fill="none" stroke="#000000" d="M 760 423 L 832 672 L 976 728 L 991 729" stroke-miterlimit="10"/></g><g transform="translate(10,-22) scale(1,1)"><path fill="#ffffff" stroke="none" d="M 77.7588984375 121.33 C 77.7588984375 112.311189216 84.8829426999 105 93.6708984375 105 C 102.4588541751 105 109.5828984375 112.311189216 109.5828984375 121.33 C 109.5828984375 130.348810784 102.4588541751 137.66 93.6708984375 137.66 C 84.8829426999 137.66 77.7588984375 130.348810784 77.7588984375 121.33 Z"/></g><g transform="translate(10,-22) scale(1,1)"><path fill="none" stroke="#000000" d="M 77.7588984375 121.33 C 77.7588984375 112.311189216 84.8829426999 105 93.6708984375 105 C 102.4588541751 105 109.5828984375 112.311189216 109.5828984375 121.33 C 109.5828984375 130.348810784 102.4588541751 137.66 93.6708984375 137.66 C 84.8829426999 137.66 77.7588984375 130.348810784 77.7588984375 121.33 Z" stroke-miterlimit="10"/></g><g transform="translate(10,-22) scale(1,1)"><path fill="none" stroke="#000000" d="M 93.6708984375 137.66 L 93.6708984375 169.34" stroke-miterlimit="10"/></g><g transform="translate(10,-22) scale(1,1)"><path fill="none" stroke="#000000" d="M 76.8228984375 149.54 L 110.5188984375 149.54" stroke-miterlimit="10"/></g><g transform="translate(10,-22) scale(1,1)"><path fill="none" stroke="#000000" d="M 93.6708984375 169.34 L 70.2708984375 202" stroke-miterlimit="10"/></g><g transform="translate(10,-22) scale(1,1)"><path fill="none" stroke="#000000" d="M 93.6708984375 169.34 L 117.0708984375 202" stroke-miterlimit="10"/></g><g transform="translate(10,-22) scale(1,1)"><g><path fill="none" stroke="none"/><text fill="#000000" stroke="none" font-family="Arial" font-size="13px" font-style="normal" font-weight="bold" text-decoration="none" x="67.293212890625" y="222.5">Cuidador</text></g></g><g transform="translate(10,-22) scale(1,1)"><path fill="none" stroke="#000000" d="M 122 229 L 182 359" stroke-miterlimit="10"/></g><g transform="translate(10,-22) scale(1,1)"><path fill="#FFFFFF" stroke="none" d="M 165.8383536904634 344.07347366044456 L 182 359 L 181.12663829364737 337.01734230512886"/></g><g transform="translate(10,-22) scale(1,1)"><path fill="none" stroke="#000000" d="M 165.8383536904634 344.07347366044456 L 182 359 L 181.12663829364737 337.01734230512886 L 165.8383536904634 344.07347366044456" stroke-miterlimit="10"/></g><g transform="translate(10,-22) scale(1,1)"><path fill="#ffffff" stroke="none" d="M 29.7588984375 361.33 C 29.7588984375 352.311189216 36.8829426999 345 45.6708984375 345 C 54.4588541751 345 61.582898437500006 352.311189216 61.582898437500006 361.33 C 61.582898437500006 370.34881078399997 54.4588541751 377.65999999999997 45.6708984375 377.65999999999997 C 36.8829426999 377.65999999999997 29.7588984375 370.34881078399997 29.7588984375 361.33 Z"/></g><g transform="translate(10,-22) scale(1,1)"><path fill="none" stroke="#000000" d="M 29.7588984375 361.33 C 29.7588984375 352.311189216 36.8829426999 345 45.6708984375 345 C 54.4588541751 345 61.582898437500006 352.311189216 61.582898437500006 361.33 C 61.582898437500006 370.34881078399997 54.4588541751 377.65999999999997 45.6708984375 377.65999999999997 C 36.8829426999 377.65999999999997 29.7588984375 370.34881078399997 29.7588984375 361.33 Z" stroke-miterlimit="10"/></g><g transform="translate(10,-22) scale(1,1)"><path fill="none" stroke="#000000" d="M 45.6708984375 377.65999999999997 L 45.6708984375 409.34000000000003" stroke-miterlimit="10"/></g><g transform="translate(10,-22) scale(1,1)"><path fill="none" stroke="#000000" d="M 28.8228984375 389.54 L 62.518898437500006 389.54" stroke-miterlimit="10"/></g><g transform="translate(10,-22) scale(1,1)"><path fill="none" stroke="#000000" d="M 45.6708984375 409.34000000000003 L 22.270898437499998 442" stroke-miterlimit="10"/></g><g transform="translate(10,-22) scale(1,1)"><path fill="none" stroke="#000000" d="M 45.6708984375 409.34000000000003 L 69.0708984375 442" stroke-miterlimit="10"/></g><g transform="translate(10,-22) scale(1,1)"><g><path fill="none" stroke="none"/><text fill="#000000" stroke="none" font-family="Arial" font-size="13px" font-style="normal" font-weight="bold" text-decoration="none" x="20.37548828125" y="462.5">Paciente</text></g></g><g transform="translate(10,-22) scale(1,1)"><path fill="none" stroke="#000000" d="M 92 406 L 135 407" stroke-miterlimit="10"/></g><g transform="translate(10,-22) scale(1,1)"><path fill="#FFFFFF" stroke="none" d="M 114.4844057653014 414.9442050072491 L 135 407 L 114.87588296481103 398.11068542833493"/></g><g transform="translate(10,-22) scale(1,1)"><path fill="none" stroke="#000000" d="M 114.4844057653014 414.9442050072491 L 135 407 L 114.87588296481103 398.11068542833493 L 114.4844057653014 414.9442050072491" stroke-miterlimit="10"/></g><g transform="translate(10,-22) scale(1,1)"><path fill="#ffffff" stroke="none" d="M 85.7588984375 545.3299999999999 C 85.7588984375 536.3111892159999 92.8829426999 529 101.6708984375 529 C 110.4588541751 529 117.5828984375 536.3111892159999 117.5828984375 545.3299999999999 C 117.5828984375 554.348810784 110.4588541751 561.66 101.6708984375 561.66 C 92.8829426999 561.66 85.7588984375 554.348810784 85.7588984375 545.3299999999999 Z"/></g><g transform="translate(10,-22) scale(1,1)"><path fill="none" stroke="#000000" d="M 85.7588984375 545.3299999999999 C 85.7588984375 536.3111892159999 92.8829426999 529 101.6708984375 529 C 110.4588541751 529 117.5828984375 536.3111892159999 117.5828984375 545.3299999999999 C 117.5828984375 554.348810784 110.4588541751 561.66 101.6708984375 561.66 C 92.8829426999 561.66 85.7588984375 554.348810784 85.7588984375 545.3299999999999 Z" stroke-miterlimit="10"/></g><g transform="translate(10,-22) scale(1,1)"><path fill="none" stroke="#000000" d="M 101.6708984375 561.66 L 101.6708984375 593.34" stroke-miterlimit="10"/></g><g transform="translate(10,-22) scale(1,1)"><path fill="none" stroke="#000000" d="M 84.8228984375 573.54 L 118.5188984375 573.54" stroke-miterlimit="10"/></g><g transform="translate(10,-22) scale(1,1)"><path fill="none" stroke="#000000" d="M 101.6708984375 593.34 L 78.2708984375 626" stroke-miterlimit="10"/></g><g transform="translate(10,-22) scale(1,1)"><path fill="none" stroke="#000000" d="M 101.6708984375 593.34 L 125.0708984375 626" stroke-miterlimit="10"/></g><g transform="translate(10,-22) scale(1,1)"><g><path fill="none" stroke="none"/><text fill="#000000" stroke="none" font-family="Arial" font-size="13px" font-style="normal" font-weight="bold" text-decoration="none" x="80.71728515625" y="646.5">Médico</text></g></g><g transform="translate(10,-22) scale(1,1)"><path fill="none" stroke="#000000" d="M 136 527 L 177 455" stroke-miterlimit="10"/></g><g transform="translate(10,-22) scale(1,1)"><path fill="#FFFFFF" stroke="none" d="M 174.25824668221713 476.8284857180801 L 177 455 L 159.62621736236687 468.4963579109432"/></g><g transform="translate(10,-22) scale(1,1)"><path fill="none" stroke="#000000" d="M 174.25824668221713 476.8284857180801 L 177 455 L 159.62621736236687 468.4963579109432 L 174.25824668221713 476.8284857180801" stroke-miterlimit="10"/></g><g transform="translate(10,-22) scale(1,1)"><path fill="#C0C0C0" stroke="none" d="M 339 452 C 339 442.6111584 408.6197136 435 494.5 435 C 580.3802864 435 650 442.6111584 650 452 C 650 461.3888416 580.3802864 469 494.5 469 C 408.6197136 469 339 461.3888416 339 452 Z" opacity="0.2"/></g><g transform="translate(10,-22) scale(1,1)"><path fill="#ffffff" stroke="none" d="M 332 445 C 332 435.6111584 401.6197136 428 487.5 428 C 573.3802864 428 643 435.6111584 643 445 C 643 454.3888416 573.3802864 462 487.5 462 C 401.6197136 462 332 454.3888416 332 445 Z"/></g><g transform="translate(10,-22) scale(1,1)"><path fill="none" stroke="#000000" d="M 332 445 C 332 435.6111584 401.6197136 428 487.5 428 C 573.3802864 428 643 435.6111584 643 445 C 643 454.3888416 573.3802864 462 487.5 462 C 401.6197136 462 332 454.3888416 332 445 Z" stroke-miterlimit="10"/></g><g transform="translate(10,-22) scale(1,1)"><g><path fill="none" stroke="none"/><text fill="#000000" stroke="none" font-family="Arial" font-size="13px" font-style="normal" font-weight="bold" text-decoration="none" x="449.56640625" y="452">Iniciar sesión</text></g></g><g transform="translate(10,-22) scale(1,1)"><path fill="none" stroke="#000000" d="M 273 416 L 353 427" stroke-miterlimit="10"/></g><g transform="translate(10,-22) scale(1,1)"><path fill="none" stroke="#000000" d="M 671 395 L 554 427" stroke-miterlimit="10"/></g><g transform="translate(10,-22) scale(1,1)"><path fill="#C0C0C0" stroke="none" d="M 991 696 C 991 686.6111584 1063.3060048 679 1152.5 679 C 1241.6939952 679 1314 686.6111584 1314 696 C 1314 705.3888416 1241.6939952 713 1152.5 713 C 1063.3060048 713 991 705.3888416 991 696 Z" opacity="0.2"/></g><g transform="translate(10,-22) scale(1,1)"><path fill="#ffffff" stroke="none" d="M 984 689 C 984 679.6111584 1056.3060048 672 1145.5 672 C 1234.6939952 672 1307 679.6111584 1307 689 C 1307 698.3888416 1234.6939952 706 1145.5 706 C 1056.3060048 706 984 698.3888416 984 689 Z"/></g><g transform="translate(10,-22) scale(1,1)"><path fill="none" stroke="#000000" d="M 984 689 C 984 679.6111584 1056.3060048 672 1145.5 672 C 1234.6939952 672 1307 679.6111584 1307 689 C 1307 698.3888416 1234.6939952 706 1145.5 706 C 1056.3060048 706 984 698.3888416 984 689 Z" stroke-miterlimit="10"/></g><g transform="translate(10,-22) scale(1,1)"><g><path fill="none" stroke="none"/><text fill="#000000" stroke="none" font-family="Arial" font-size="13px" font-style="normal" font-weight="bold" text-decoration="none" x="1083.721435546875" y="696">Monitorizar pacientes</text></g></g><g transform="translate(10,-22) scale(1,1)"><path fill="none" stroke="#000000" d="M 1503 623 L 1243 671" stroke-miterlimit="10"/></g><g transform="translate(10,-22) scale(1,1)"><path fill="none" stroke="#000000" d="M 1528 303 L 1520 536 L 1288 567" stroke-miterlimit="10"/></g></g></svg>