<svg version="1.1" xmlns="http://www.w3.org/2000/svg" xmlns:xlink="http://www.w3.org/1999/xlink" width="1172" height="375"><defs/><g><g transform="translate(10,5) scale(1,1)"><path fill="none" stroke="#000000" d="M 0 5 L 1152 5 L 1152 360 L 0 360 L 0 5" stroke-miterlimit="10"/></g><g transform="translate(10,5) scale(1,1)"><path fill="#ffffff" stroke="none" d="M 0 5 L 0 27 L 276.13330078125 27 L 287.13330078125 16 L 287.13330078125 5 L 0 5"/></g><g transform="translate(10,5) scale(1,1)"><path fill="none" stroke="#000000" d="M 0 5 L 0 27 L 276.13330078125 27 L 287.13330078125 16 L 287.13330078125 5 L 0 5 L 0 5" stroke-miterlimit="10"/></g><g transform="translate(10,5) scale(1,1)"><g><path fill="none" stroke="none"/><text fill="#000000" stroke="none" font-family="Arial" font-size="13px" font-style="normal" font-weight="normal" text-decoration="none" x="70.97900390625" y="22.5">Comprobar formularios pendientes</text></g></g><g transform="translate(10,5) scale(1,1)"><g><path fill="none" stroke="none"/><text fill="#000000" stroke="none" font-family="Arial" font-size="13px" font-style="normal" font-weight="bold" text-decoration="none" x="5" y="22.5">interaction</text></g></g><g transform="translate(10,5) scale(1,1)"><rect fill="#C0C0C0" stroke="none" x="65" y="47" width="57.28271484375" height="39" opacity="0.2"/></g><g transform="translate(10,5) scale(1,1)"><rect fill="#ffffff" stroke="none" x="58" y="40" width="57.28271484375" height="39"/></g><g transform="translate(10,5) scale(1,1)"><path fill="none" stroke="#000000" d="M 58 40 L 115.28271484375 40 L 115.28271484375 79 L 58 79 L 58 40 Z Z" stroke-miterlimit="10"/></g><g transform="translate(10,5) scale(1,1)"><g><path fill="none" stroke="none"/><text fill="#000000" stroke="none" font-family="Arial" font-size="13px" font-style="normal" font-weight="bold" text-decoration="none" x="68.937744140625" y="59.5">Bizagi</text></g></g><g transform="translate(10,5) scale(1,1)"><path fill="none" stroke="#000000" d="M 87.5 80 L 87.5 246" stroke-miterlimit="10" stroke-dasharray="3"/></g><g transform="translate(10,5) scale(1,1)"><rect fill="#C0C0C0" stroke="none" x="247" y="47" width="109.29541015625" height="39" opacity="0.2"/></g><g transform="translate(10,5) scale(1,1)"><rect fill="#ffffff" stroke="none" x="240" y="40" width="109.29541015625" height="39"/></g><g transform="translate(10,5) scale(1,1)"><path fill="none" stroke="#000000" d="M 240 40 L 349.29541015625 40 L 349.29541015625 79 L 240 79 L 240 40 Z Z" stroke-miterlimit="10"/></g><g transform="translate(10,5) scale(1,1)"><g><path fill="none" stroke="none"/><text fill="#000000" stroke="none" font-family="Arial" font-size="13px" font-style="normal" font-weight="bold" text-decoration="none" x="251.667724609375" y="59.5">Servidor HTTP</text></g></g><g transform="translate(10,5) scale(1,1)"><path fill="none" stroke="#000000" d="M 295.5 80 L 295.5 246" stroke-miterlimit="10" stroke-dasharray="3"/></g><g transform="translate(10,5) scale(1,1)"><rect fill="#C0C0C0" stroke="none" x="607" y="47" width="116.5126953125" height="39" opacity="0.2"/></g><g transform="translate(10,5) scale(1,1)"><rect fill="#ffffff" stroke="none" x="600" y="40" width="116.5126953125" height="39"/></g><g transform="translate(10,5) scale(1,1)"><path fill="none" stroke="#000000" d="M 600 40 L 716.5126953125 40 L 716.5126953125 79 L 600 79 L 600 40 Z Z" stroke-miterlimit="10"/></g><g transform="translate(10,5) scale(1,1)"><g><path fill="none" stroke="none"/><text fill="#000000" stroke="none" font-family="Arial" font-size="13px" font-style="normal" font-weight="bold" text-decoration="none" x="613.82275390625" y="59.5">: userController</text></g></g><g transform="translate(10,5) scale(1,1)"><path fill="none" stroke="#000000" d="M 659.5 80 L 659.5 206" stroke-miterlimit="10" stroke-dasharray="3"/></g><g transform="translate(10,5) scale(1,1)"><rect fill="#C0C0C0" stroke="none" x="743" y="47" width="213.35888671875" height="39" opacity="0.2"/></g><g transform="translate(10,5) scale(1,1)"><rect fill="#ffffff" stroke="none" x="736" y="40" width="213.35888671875" height="39"/></g><g transform="translate(10,5) scale(1,1)"><path fill="none" stroke="#000000" d="M 736 40 L 949.35888671875 40 L 949.35888671875 79 L 736 79 L 736 40 Z Z" stroke-miterlimit="10"/></g><g transform="translate(10,5) scale(1,1)"><g><path fill="none" stroke="none"/><text fill="#000000" stroke="none" font-family="Arial" font-size="13px" font-style="normal" font-weight="bold" text-decoration="none" x="752.8125" y="59.5">User: mongoose.model("User")</text></g></g><g transform="translate(10,5) scale(1,1)"><path fill="none" stroke="#000000" d="M 843.5 80 L 843.5 198" stroke-miterlimit="10" stroke-dasharray="3"/></g><g transform="translate(10,5) scale(1,1)"><rect fill="#C0C0C0" stroke="none" x="1015" y="47" width="108.53369140625" height="39" opacity="0.2"/></g><g transform="translate(10,5) scale(1,1)"><rect fill="#ffffff" stroke="none" x="1008" y="40" width="108.53369140625" height="39"/></g><g transform="translate(10,5) scale(1,1)"><path fill="none" stroke="#000000" d="M 1008 40 L 1116.53369140625 40 L 1116.53369140625 79 L 1008 79 L 1008 40 Z Z" stroke-miterlimit="10"/></g><g transform="translate(10,5) scale(1,1)"><g><path fill="none" stroke="none"/><text fill="#000000" stroke="none" font-family="Arial" font-size="13px" font-style="normal" font-weight="bold" text-decoration="none" x="1020.715087890625" y="59.5">db : mongoDB</text></g></g><g transform="translate(10,5) scale(1,1)"><path fill="none" stroke="#000000" d="M 1063.5 80 L 1063.5 194" stroke-miterlimit="10" stroke-dasharray="3"/></g><g transform="translate(10,5) scale(1,1)"><path fill="#ffffff" stroke="none" d="M 376 192 L 573 192 L 583 202 L 583 254 L 376 254 L 376 192"/></g><g transform="translate(10,5) scale(1,1)"><path fill="none" stroke="#000000" d="M 376 192 L 573 192 L 583 202 L 583 254 L 376 254 L 376 192 L 376 192" stroke-miterlimit="10"/></g><g transform="translate(10,5) scale(1,1)"><path fill="none" stroke="#000000" d="M 573 192 L 573 202 L 583 202 L 573 192" stroke-miterlimit="10"/></g><g transform="translate(10,5) scale(1,1)"><g><path fill="none" stroke="none"/><text fill="#000000" stroke="none" font-family="Arial" font-size="13px" font-style="normal" font-weight="normal" text-decoration="none" x="381" y="210">Devuelve un true en caso de que</text><text fill="#000000" stroke="none" font-family="Arial" font-size="13px" font-style="normal" font-weight="normal" text-decoration="none" x="381" y="223">haya formularios pendientes. En</text><text fill="#000000" stroke="none" font-family="Arial" font-size="13px" font-style="normal" font-weight="normal" text-decoration="none" x="381" y="236">caso contratio false.</text></g></g><g transform="translate(10,5) scale(1,1)"><path fill="none" stroke="#000000" d="M 87 121 L 288 121" stroke-miterlimit="10"/></g><g transform="translate(10,5) scale(1,1)"><path fill="#000000" stroke="none" d="M 277.83732514237585 125.20951775601598 L 288 121 L 277.83732514237585 116.79048224398402"/></g><g transform="translate(10,5) scale(1,1)"><path fill="none" stroke="#000000" d="M 277.83732514237585 125.20951775601598 L 288 121 L 277.83732514237585 116.79048224398402 L 277.83732514237585 125.20951775601598" stroke-miterlimit="10"/></g><g transform="translate(10,5) scale(1,1)"><g><path fill="none" stroke="none"/><text fill="#000000" stroke="none" font-family="Arial" font-size="13px" font-style="normal" font-weight="normal" text-decoration="none" x="111.53271484375" y="117.5">"/api/requests/:pacienteId"</text></g></g><g transform="translate(10,5) scale(1,1)"><g><path fill="none" stroke="none"/><text fill="#000000" stroke="none" font-family="Arial" font-size="13px" font-style="normal" font-weight="normal" text-decoration="none" x="134.832275390625" y="102.5">«HTTP Request »</text></g></g><g transform="translate(10,5) scale(1,1)"><rect fill="#ffffff" stroke="none" x="288" y="121" width="13" height="111"/></g><g transform="translate(10,5) scale(1,1)"><path fill="none" stroke="#000000" d="M 288 121 L 301 121 L 301 232 L 288 232 L 288 121 Z Z" stroke-miterlimit="10"/></g><g transform="translate(10,5) scale(1,1)"><path fill="none" stroke="#000000" d="M 301 136 L 652 136" stroke-miterlimit="10"/></g><g transform="translate(10,5) scale(1,1)"><path fill="#000000" stroke="none" d="M 641.8373251423759 140.209517756016 L 652 136 L 641.8373251423758 131.790482243984"/></g><g transform="translate(10,5) scale(1,1)"><path fill="none" stroke="#000000" d="M 641.8373251423759 140.209517756016 L 652 136 L 641.8373251423758 131.790482243984 L 641.8373251423759 140.209517756016" stroke-miterlimit="10"/></g><g transform="translate(10,5) scale(1,1)"><g><path fill="none" stroke="none"/><text fill="#000000" stroke="none" font-family="Arial" font-size="13px" font-style="normal" font-weight="normal" text-decoration="none" x="309.5" y="132.5">check_Request_Completed(req: Request, res: Response)</text></g></g><g transform="translate(10,5) scale(1,1)"><rect fill="#ffffff" stroke="none" x="652" y="136" width="13" height="56"/></g><g transform="translate(10,5) scale(1,1)"><path fill="none" stroke="#000000" d="M 652 136 L 665 136 L 665 192 L 652 192 L 652 136 Z Z" stroke-miterlimit="10"/></g><g transform="translate(10,5) scale(1,1)"><path fill="none" stroke="#000000" d="M 665 144 L 836 144" stroke-miterlimit="10"/></g><g transform="translate(10,5) scale(1,1)"><path fill="#000000" stroke="none" d="M 825.8373251423759 148.209517756016 L 836 144 L 825.8373251423758 139.790482243984"/></g><g transform="translate(10,5) scale(1,1)"><path fill="none" stroke="#000000" d="M 825.8373251423759 148.209517756016 L 836 144 L 825.8373251423758 139.790482243984 L 825.8373251423759 148.209517756016" stroke-miterlimit="10"/></g><g transform="translate(10,5) scale(1,1)"><g><path fill="none" stroke="none"/><text fill="#000000" stroke="none" font-family="Arial" font-size="13px" font-style="normal" font-weight="normal" text-decoration="none" x="671.5" y="140.5">nRequests = find( ).count( )</text></g></g><g transform="translate(10,5) scale(1,1)"><rect fill="#ffffff" stroke="none" x="836" y="144" width="13" height="40"/></g><g transform="translate(10,5) scale(1,1)"><path fill="none" stroke="#000000" d="M 836 144 L 849 144 L 849 184 L 836 184 L 836 144 Z Z" stroke-miterlimit="10"/></g><g transform="translate(10,5) scale(1,1)"><path fill="none" stroke="#000000" d="M 849 152 L 1056 152" stroke-miterlimit="10"/></g><g transform="translate(10,5) scale(1,1)"><path fill="#000000" stroke="none" d="M 1045.837325142376 156.209517756016 L 1056 152 L 1045.837325142376 147.790482243984"/></g><g transform="translate(10,5) scale(1,1)"><path fill="none" stroke="#000000" d="M 1045.837325142376 156.209517756016 L 1056 152 L 1045.837325142376 147.790482243984 L 1045.837325142376 156.209517756016" stroke-miterlimit="10"/></g><g transform="translate(10,5) scale(1,1)"><g><path fill="none" stroke="none"/><text fill="#000000" stroke="none" font-family="Arial" font-size="13px" font-style="normal" font-weight="normal" text-decoration="none" x="911.543212890625" y="148.5">find( ).count( )</text></g></g><g transform="translate(10,5) scale(1,1)"><rect fill="#ffffff" stroke="none" x="1056" y="152" width="13" height="28"/></g><g transform="translate(10,5) scale(1,1)"><path fill="none" stroke="#000000" d="M 1056 152 L 1069 152 L 1069 180 L 1056 180 L 1056 152 Z Z" stroke-miterlimit="10"/></g><g transform="translate(10,5) scale(1,1)"><path fill="none" stroke="#000000" d="M 1056 160 L 849 160" stroke-miterlimit="10" stroke-dasharray="3"/></g><g transform="translate(10,5) scale(1,1)"><path fill="none" stroke="#000000" d="M 859.1626748576241 155.790482243984 L 849 160 L 859.1626748576241 164.209517756016" stroke-miterlimit="10"/></g><g transform="translate(10,5) scale(1,1)"><path fill="none" stroke="#000000" d="M 836 168 L 665 168" stroke-miterlimit="10" stroke-dasharray="3"/></g><g transform="translate(10,5) scale(1,1)"><path fill="none" stroke="#000000" d="M 675.1626748576241 163.790482243984 L 665 168 L 675.1626748576241 172.209517756016" stroke-miterlimit="10"/></g><g transform="translate(10,5) scale(1,1)"><path fill="none" stroke="#000000" d="M 652 184 L 301 184" stroke-miterlimit="10" stroke-dasharray="3"/></g><g transform="translate(10,5) scale(1,1)"><path fill="none" stroke="#000000" d="M 311.16267485762415 179.790482243984 L 301 184 L 311.16267485762415 188.209517756016" stroke-miterlimit="10"/></g><g transform="translate(10,5) scale(1,1)"><path fill="none" stroke="#000000" d="M 288 200 L 87 200" stroke-miterlimit="10" stroke-dasharray="3"/></g><g transform="translate(10,5) scale(1,1)"><path fill="none" stroke="#000000" d="M 97.16267485762415 195.790482243984 L 87 200 L 97.16267485762415 204.209517756016" stroke-miterlimit="10"/></g><g transform="translate(10,5) scale(1,1)"><g><path fill="none" stroke="none"/><text fill="#000000" stroke="none" font-family="Arial" font-size="13px" font-style="normal" font-weight="normal" text-decoration="none" x="122.5" y="216.5">Json con la respuesta</text></g></g><g transform="translate(10,5) scale(1,1)"><g><path fill="none" stroke="none"/><text fill="#000000" stroke="none" font-family="Arial" font-size="13px" font-style="normal" font-weight="normal" text-decoration="none" x="130.5" y="231.5">«HTTP Response»</text></g></g></g></svg>